<?xml version="1.0" encoding="utf-8"?>
<!-- Generator: Adobe Illustrator 19.0.1, SVG Export Plug-In . SVG Version: 6.00 Build 0)  -->
<svg version="1.1" id="Layer_1" xmlns="http://www.w3.org/2000/svg" xmlns:xlink="http://www.w3.org/1999/xlink" x="0px" y="0px"
	 viewBox="0 0 175 200" style="enable-background:new 0 0 175 200;" xml:space="preserve">
<style type="text/css">
	.st0{fill:none;stroke:#D8D8D8;stroke-width:2.25;stroke-linecap:round;stroke-linejoin:round;stroke-miterlimit:10;}
	.st1{fill:none;stroke:#012B30;stroke-width:2.25;stroke-linecap:round;stroke-linejoin:round;stroke-miterlimit:10;}
	.st2{fill:#FFFFFF;stroke:#012B30;stroke-width:2.25;stroke-linecap:round;stroke-linejoin:round;stroke-miterlimit:10;}
	.st3{fill:#012B30;}
	.st4{clip-path:url(#SVGID_2_);}
	.st5{fill:none;}
	.st6{clip-path:url(#SVGID_4_);}
</style>
<g>
	<g>
		<g>
			<path class="st0" d="M32.5,39.4c4.6,0,4.6,2,9.2,2c4.6,0,4.6-2,9.2-2c4.6,0,4.6,2,9.2,2c4.6,0,4.6-2,9.2-2c4.6,0,4.6,2,9.2,2
				s4.6-2,9.2-2c4.6,0,4.6,2,9.2,2c4.6,0,4.6-2,9.2-2c4.6,0,4.6,2,9.2,2c4.6,0,4.6-2,9.2-2c4.6,0,4.6,2,9.2,2c4.6,0,4.6-2,9.2-2"/>
		</g>
		<g>
			<path class="st0" d="M32.5,47.9c4.6,0,4.6,2,9.2,2c4.6,0,4.6-2,9.2-2c4.6,0,4.6,2,9.2,2c4.6,0,4.6-2,9.2-2c4.6,0,4.6,2,9.2,2
				s4.6-2,9.2-2c4.6,0,4.6,2,9.2,2c4.6,0,4.6-2,9.2-2c4.6,0,4.6,2,9.2,2c4.6,0,4.6-2,9.2-2c4.6,0,4.6,2,9.2,2c4.6,0,4.6-2,9.2-2"/>
		</g>
		<g>
			<path class="st0" d="M32.5,56.4c4.6,0,4.6,2,9.2,2c4.6,0,4.6-2,9.2-2c4.6,0,4.6,2,9.2,2c4.6,0,4.6-2,9.2-2c4.6,0,4.6,2,9.2,2
				s4.6-2,9.2-2c4.6,0,4.6,2,9.2,2c4.6,0,4.6-2,9.2-2c4.6,0,4.6,2,9.2,2c4.6,0,4.6-2,9.2-2c4.6,0,4.6,2,9.2,2c4.6,0,4.6-2,9.2-2"/>
		</g>
		<g>
			<path class="st0" d="M32.5,65c4.6,0,4.6,2,9.2,2c4.6,0,4.6-2,9.2-2c4.6,0,4.6,2,9.2,2c4.6,0,4.6-2,9.2-2c4.6,0,4.6,2,9.2,2
				s4.6-2,9.2-2c4.6,0,4.6,2,9.2,2c4.6,0,4.6-2,9.2-2c4.6,0,4.6,2,9.2,2c4.6,0,4.6-2,9.2-2c4.6,0,4.6,2,9.2,2c4.6,0,4.6-2,9.2-2"/>
		</g>
		<g>
			<path class="st0" d="M32.5,73.5c4.6,0,4.6,2,9.2,2c4.6,0,4.6-2,9.2-2c4.6,0,4.6,2,9.2,2c4.6,0,4.6-2,9.2-2c4.6,0,4.6,2,9.2,2
				s4.6-2,9.2-2c4.6,0,4.6,2,9.2,2c4.6,0,4.6-2,9.2-2c4.6,0,4.6,2,9.2,2c4.6,0,4.6-2,9.2-2c4.6,0,4.6,2,9.2,2c4.6,0,4.6-2,9.2-2"/>
		</g>
		<g>
			<path class="st0" d="M32.5,82c4.6,0,4.6,2,9.2,2c4.6,0,4.6-2,9.2-2c4.6,0,4.6,2,9.2,2c4.6,0,4.6-2,9.2-2c4.6,0,4.6,2,9.2,2
				s4.6-2,9.2-2c4.6,0,4.6,2,9.2,2c4.6,0,4.6-2,9.2-2c4.6,0,4.6,2,9.2,2c4.6,0,4.6-2,9.2-2c4.6,0,4.6,2,9.2,2c4.6,0,4.6-2,9.2-2"/>
		</g>
		<g>
			<path class="st0" d="M32.5,90.5c4.6,0,4.6,2,9.2,2c4.6,0,4.6-2,9.2-2c4.6,0,4.6,2,9.2,2c4.6,0,4.6-2,9.2-2c4.6,0,4.6,2,9.2,2
				s4.6-2,9.2-2c4.6,0,4.6,2,9.2,2c4.6,0,4.6-2,9.2-2c4.6,0,4.6,2,9.2,2c4.6,0,4.6-2,9.2-2c4.6,0,4.6,2,9.2,2c4.6,0,4.6-2,9.2-2"/>
		</g>
		<g>
			<path class="st0" d="M32.5,99c4.6,0,4.6,2,9.2,2c4.6,0,4.6-2,9.2-2c4.6,0,4.6,2,9.2,2c4.6,0,4.6-2,9.2-2c4.6,0,4.6,2,9.2,2
				s4.6-2,9.2-2c4.6,0,4.6,2,9.2,2c4.6,0,4.6-2,9.2-2c4.6,0,4.6,2,9.2,2c4.6,0,4.6-2,9.2-2c4.6,0,4.6,2,9.2,2c4.6,0,4.6-2,9.2-2"/>
		</g>
		<g>
			<path class="st0" d="M32.5,107.5c4.6,0,4.6,2,9.2,2c4.6,0,4.6-2,9.2-2c4.6,0,4.6,2,9.2,2c4.6,0,4.6-2,9.2-2c4.6,0,4.6,2,9.2,2
				s4.6-2,9.2-2c4.6,0,4.6,2,9.2,2c4.6,0,4.6-2,9.2-2c4.6,0,4.6,2,9.2,2c4.6,0,4.6-2,9.2-2c4.6,0,4.6,2,9.2,2c4.6,0,4.6-2,9.2-2"/>
		</g>
		<g>
			<path class="st0" d="M32.5,116c4.6,0,4.6,2,9.2,2c4.6,0,4.6-2,9.2-2c4.6,0,4.6,2,9.2,2c4.6,0,4.6-2,9.2-2c4.6,0,4.6,2,9.2,2
				s4.6-2,9.2-2c4.6,0,4.6,2,9.2,2c4.6,0,4.6-2,9.2-2c4.6,0,4.6,2,9.2,2c4.6,0,4.6-2,9.2-2c4.6,0,4.6,2,9.2,2c4.6,0,4.6-2,9.2-2"/>
		</g>
		<g>
			<path class="st0" d="M32.5,124.5c4.6,0,4.6,2,9.2,2c4.6,0,4.6-2,9.2-2c4.6,0,4.6,2,9.2,2c4.6,0,4.6-2,9.2-2c4.6,0,4.6,2,9.2,2
				s4.6-2,9.2-2c4.6,0,4.6,2,9.2,2c4.6,0,4.6-2,9.2-2c4.6,0,4.6,2,9.2,2c4.6,0,4.6-2,9.2-2c4.6,0,4.6,2,9.2,2c4.6,0,4.6-2,9.2-2"/>
		</g>
		<g>
			<path class="st0" d="M32.5,133c4.6,0,4.6,2,9.2,2c4.6,0,4.6-2,9.2-2c4.6,0,4.6,2,9.2,2c4.6,0,4.6-2,9.2-2c4.6,0,4.6,2,9.2,2
				s4.6-2,9.2-2c4.6,0,4.6,2,9.2,2c4.6,0,4.6-2,9.2-2c4.6,0,4.6,2,9.2,2c4.6,0,4.6-2,9.2-2c4.6,0,4.6,2,9.2,2c4.6,0,4.6-2,9.2-2"/>
		</g>
		<g>
			<path class="st0" d="M32.5,141.6c4.6,0,4.6,2,9.2,2c4.6,0,4.6-2,9.2-2c4.6,0,4.6,2,9.2,2c4.6,0,4.6-2,9.2-2c4.6,0,4.6,2,9.2,2
				s4.6-2,9.2-2c4.6,0,4.6,2,9.2,2c4.6,0,4.6-2,9.2-2c4.6,0,4.6,2,9.2,2c4.6,0,4.6-2,9.2-2c4.6,0,4.6,2,9.2,2c4.6,0,4.6-2,9.2-2"/>
		</g>
		<g>
			<path class="st0" d="M32.5,150.1c4.6,0,4.6,2,9.2,2c4.6,0,4.6-2,9.2-2c4.6,0,4.6,2,9.2,2c4.6,0,4.6-2,9.2-2c4.6,0,4.6,2,9.2,2
				s4.6-2,9.2-2c4.6,0,4.6,2,9.2,2c4.6,0,4.6-2,9.2-2c4.6,0,4.6,2,9.2,2c4.6,0,4.6-2,9.2-2c4.6,0,4.6,2,9.2,2c4.6,0,4.6-2,9.2-2"/>
		</g>
		<g>
			<path class="st0" d="M32.5,158.6c4.6,0,4.6,2,9.2,2c4.6,0,4.6-2,9.2-2c4.6,0,4.6,2,9.2,2c4.6,0,4.6-2,9.2-2c4.6,0,4.6,2,9.2,2
				s4.6-2,9.2-2c4.6,0,4.6,2,9.2,2c4.6,0,4.6-2,9.2-2c4.6,0,4.6,2,9.2,2c4.6,0,4.6-2,9.2-2c4.6,0,4.6,2,9.2,2c4.6,0,4.6-2,9.2-2"/>
		</g>
	</g>
	<rect x="32.5" y="31.9" class="st1" width="109.9" height="136.2"/>
	<path class="st1" d="M150.3,38.8c0,3.9,3.2,7.1,7.1,7.2c0,0,0,0,0,0v10.1c0,0,0,0,0,0c-3.9,0-7.1,3.2-7.1,7.1
		c0,3.9,3.2,7.1,7.1,7.1c0,0,0,0,0,0v10.2c0,0,0,0,0,0c-3.9,0-7.1,3.2-7.1,7.2c0,3.9,3.2,7.1,7.1,7.1c0,0,0,0,0,0v10.2c0,0,0,0,0,0
		c-3.9,0-7.1,3.2-7.1,7.1c0,3.9,3.2,7.1,7.1,7.1c0,0,0,0,0,0v10.1c0,0,0,0,0,0c-3.9,0-7.1,3.2-7.1,7.2s3.2,7.1,7.1,7.2c0,0,0,0,0,0
		V154c0,0,0,0,0,0c-3.9,0-7.1,3.2-7.1,7.1c0,3.9,3.2,7.1,7.1,7.1c0,0,0,0,0,0v14.8c0,0,0,0,0,0h-13.8c0,0,0,0,0,0
		c0-3.9-3.2-7.1-7.1-7.1c-3.9,0-7.1,3.2-7.1,7.1c0,0,0,0,0,0h-10.2c0,0,0,0,0,0c0-3.9-3.2-7.1-7.1-7.1c-3.9,0-7.1,3.2-7.1,7.1
		c0,0,0,0,0,0H94.7c0,0,0,0,0,0c0-3.9-3.2-7.1-7.1-7.1c-3.9,0-7.1,3.2-7.1,7.1c0,0,0,0,0,0H70.2c0,0,0,0,0,0c0-3.9-3.2-7.1-7.2-7.1
		c-3.9,0-7.1,3.2-7.1,7.1c0,0,0,0,0,0H45.7c0,0,0,0,0,0c0-3.9-3.2-7.1-7.1-7.1c-3.9,0-7.1,3.2-7.1,7.1c0,0,0,0,0,0H17.6c0,0,0,0,0,0
		v-14.8c0,0,0,0,0,0c3.9,0,7.1-3.2,7.1-7.1c0-3.9-3.2-7.1-7.1-7.1c0,0,0,0,0,0v-10.1c0,0,0,0,0,0c3.9,0,7.1-3.2,7.1-7.2
		s-3.2-7.1-7.1-7.2c0,0,0,0,0,0v-10.1c0,0,0,0,0,0c3.9,0,7.1-3.2,7.1-7.1c0-3.9-3.2-7.1-7.1-7.1c0,0,0,0,0,0V94.9c0,0,0,0,0,0
		c3.9,0,7.1-3.2,7.1-7.1c0-3.9-3.2-7.1-7.1-7.2c0,0,0,0,0,0V70.5c0,0,0,0,0,0c3.9,0,7.1-3.2,7.1-7.1c0-3.9-3.2-7.1-7.1-7.1
		c0,0,0,0,0,0V46c0,0,0,0,0,0c3.9,0,7.1-3.2,7.1-7.2c0-3.9-3.2-7.1-7.1-7.1c0,0,0,0,0,0V16.9c0,0,0,0,0,0h13.9c0,0,0,0,0,0
		c0,0,0,0,0,0c-0.2,2.5,0.9,4.9,3.1,6.2c5.5,3.2,11.2-0.8,11.2-6c0-0.1,0-0.1,0-0.2h10.2c0,0.1,0,0.1,0,0.2c0,5.3,5.7,9.2,11.2,6
		c2.2-1.2,3.3-3.7,3.1-6.2c0,0,0,0,0,0c0,0,0,0,0,0h10.2c0,0,0,0,0,0c0,0,0,0,0,0.1c-0.1,2.5,0.9,4.9,3.1,6.1
		c5.6,3.1,11.2-0.8,11.2-6c0-0.1,0-0.1,0-0.2h10.2c0,0,0,0,0,0c0,0,0,0,0,0.1c-0.1,2.5,0.9,4.9,3.1,6.1c5.6,3.1,11.2-0.8,11.2-6
		c0-0.1,0-0.1,0-0.2h10.2c0,0,0,0,0,0c0,0,0,0,0,0c-0.2,2.5,0.9,4.9,3.1,6.2c5.5,3.2,11.2-0.8,11.2-6c0-0.1,0-0.1,0-0.2h13.9
		c0,0,0,0,0,0v14.8c0,0,0,0,0,0C153.5,31.7,150.3,34.9,150.3,38.8z"/>
	<g>
		<rect x="57.3" y="68.5" class="st2" width="60.4" height="99.6"/>
		<path class="st2" d="M75.4,53.7c0-6.7,5.4-12.1,12.1-12.1c6.7,0,12.1,5.4,12.1,12.1"/>
		<line class="st1" x1="99.6" y1="53.7" x2="101.7" y2="53.7"/>
		<line class="st1" x1="73.3" y1="53.7" x2="75.4" y2="53.7"/>
		<path class="st1" d="M80,53.7c0-6.7,3.4-12.1,7.5-12.1c4.1,0,7.5,5.4,7.5,12.1"/>
		<rect x="85" y="39.9" class="st2" width="4.9" height="13.8"/>
		<path class="st1" d="M91.9,112.7h-8.8v-8c0-2.4,1.9-4.4,4.4-4.4h0.1c2.4,0,4.4,1.9,4.4,4.4V112.7z"/>
		<path class="st1" d="M91.9,132.5h-8.8v-8c0-2.4,1.9-4.4,4.4-4.4h0.1c2.4,0,4.4,1.9,4.4,4.4V132.5z"/>
		<path class="st1" d="M91.9,168.1h-8.8v-11.4c0-2.4,1.9-4.4,4.4-4.4h0.1c2.4,0,4.4,1.9,4.4,4.4V168.1z"/>
		<path class="st1" d="M97,155.9v12.2H78v-12.2c0-8.7,4.1-6.9,9.4-12.1h0.2C92.9,149,97,147.2,97,155.9z"/>
		<path class="st1" d="M68.8,92.8h-6.7v-6.2c0-1.8,1.5-3.3,3.3-3.3h0.1c1.8,0,3.3,1.5,3.3,3.3V92.8z"/>
		<path class="st1" d="M112.9,92.8h-6.7v-6.2c0-1.8,1.5-3.3,3.3-3.3h0.1c1.8,0,3.3,1.5,3.3,3.3V92.8z"/>
		<path class="st1" d="M68.8,112.7h-6.7v-9.1c0-1.8,1.5-3.3,3.3-3.3h0.1c1.8,0,3.3,1.5,3.3,3.3V112.7z"/>
		<path class="st1" d="M68.8,132.5h-6.7v-9.1c0-1.8,1.5-3.3,3.3-3.3h0.1c1.8,0,3.3,1.5,3.3,3.3V132.5z"/>
		<path class="st1" d="M68.8,152.3h-6.7v-9.1c0-1.8,1.5-3.3,3.3-3.3h0.1c1.8,0,3.3,1.5,3.3,3.3V152.3z"/>
		<path class="st1" d="M106.2,112.7h6.7v-9.1c0-1.8-1.5-3.3-3.3-3.3h-0.1c-1.8,0-3.3,1.5-3.3,3.3V112.7z"/>
		<path class="st1" d="M106.2,132.5h6.7v-9.1c0-1.8-1.5-3.3-3.3-3.3h-0.1c-1.8,0-3.3,1.5-3.3,3.3V132.5z"/>
		<path class="st1" d="M106.2,152.3h6.7v-9.1c0-1.8-1.5-3.3-3.3-3.3h-0.1c-1.8,0-3.3,1.5-3.3,3.3V152.3z"/>
		<polygon class="st2" points="122.6,61.6 52.4,61.6 54.3,68.5 120.7,68.5 		"/>
		<line class="st1" x1="63.4" y1="61.6" x2="63.4" y2="68.5"/>
		<line class="st1" x1="69.4" y1="61.6" x2="69.4" y2="68.5"/>
		<line class="st1" x1="75.4" y1="61.6" x2="75.4" y2="68.5"/>
		<line class="st1" x1="81.5" y1="61.6" x2="81.5" y2="68.5"/>
		<line class="st1" x1="87.5" y1="61.6" x2="87.5" y2="68.5"/>
		<line class="st1" x1="93.5" y1="61.6" x2="93.5" y2="68.5"/>
		<line class="st1" x1="99.6" y1="61.6" x2="99.6" y2="68.5"/>
		<line class="st1" x1="105.6" y1="61.6" x2="105.6" y2="68.5"/>
		<line class="st1" x1="111.6" y1="61.6" x2="111.6" y2="68.5"/>
		<line class="st1" x1="117.7" y1="61.6" x2="117.7" y2="68.5"/>
		<line class="st1" x1="57.3" y1="61.6" x2="57.3" y2="68.5"/>
		<line class="st1" x1="82" y1="92.8" x2="93" y2="92.8"/>
		<line class="st1" x1="82" y1="84.2" x2="93" y2="84.2"/>
		<line class="st1" x1="84.1" y1="88.5" x2="90.9" y2="88.5"/>
		<line class="st1" x1="87.5" y1="143.7" x2="87.5" y2="140.6"/>
		<line class="st1" x1="57.3" y1="160.3" x2="73.5" y2="160.3"/>
		<line class="st1" x1="101.5" y1="160.3" x2="117.7" y2="160.3"/>
		<line class="st1" x1="73.5" y1="78" x2="73.5" y2="168.1"/>
		<line class="st1" x1="78" y1="78" x2="78" y2="168.1"/>
		<line class="st1" x1="97" y1="78" x2="97" y2="168.1"/>
		<line class="st1" x1="101.5" y1="78" x2="101.5" y2="168.1"/>
		<path class="st1" d="M57.3,73.7c0.6-0.3,1.2-0.4,1.9-0.4c2.3,0,4.2,1.6,4.6,3.8c0,0.1,0.2,0.1,0.2,0c0.4-2.2,2.3-3.8,4.6-3.8
			c2.6,0,4.7,2.1,4.7,4.7"/>
		<path class="st1" d="M101.5,78c0-2.6,2.1-4.7,4.7-4.7c2.3,0,4.2,1.6,4.6,3.8c0,0.1,0.2,0.1,0.2,0c0.4-2.2,2.3-3.8,4.6-3.8
			c0.7,0,1.3,0.2,1.9,0.4"/>
		<path class="st1" d="M97,78c0-2.6-2.1-4.7-4.7-4.7c-2.3,0-4.2,1.6-4.6,3.8c0,0.1-0.2,0.1-0.2,0c-0.4-2.2-2.3-3.8-4.6-3.8
			c-2.6,0-4.7,2.1-4.7,4.7"/>
		<rect x="75.4" y="53.7" class="st2" width="24.1" height="7.9"/>
	</g>
</g>
</svg>
