<?xml version="1.0" encoding="UTF-8" standalone="no"?>
<svg width="30px" height="30px" viewBox="0 0 30 30" version="1.1" xmlns="http://www.w3.org/2000/svg" xmlns:xlink="http://www.w3.org/1999/xlink">
    <!-- Generator: Sketch 47.1 (45422) - http://www.bohemiancoding.com/sketch -->
    <title>medium-icon copy</title>
    <desc>Created with Sketch.</desc>
    <defs></defs>
    <g id="templates" stroke="none" stroke-width="1" fill="none" fill-rule="evenodd">
        <g id="homepage_video_module_alternative-copy-3" transform="translate(-142.000000, -951.000000)" fill-rule="nonzero" fill="#333333">
            <g id="medium-icon-copy" transform="translate(142.000000, 951.000000)">
                <path d="M0,0 L30,0 L30,30 L0,30 L0,0 Z M7.17,10.02 L7.2,10.02 L7.2,18.96 C7.26,19.26 7.17,19.59 6.93,19.83 L4.8,22.41 L4.8,22.74 L10.8,22.74 L10.8,22.41 L8.67,19.83 C8.43,19.62 8.34,19.29 8.37,18.96 L8.37,11.25 L13.65,22.74 L14.25,22.74 L18.75,11.25 L18.75,20.34 C18.75,20.58 18.75,20.64 18.6,20.79 L16.98,22.38 L16.98,22.71 L24.9,22.71 L24.9,22.38 L23.34,20.85 C23.19,20.76 23.13,20.58 23.16,20.4 L23.16,9.06 C23.13,8.88 23.19,8.73 23.34,8.61 L24.96,7.08 L24.96,6.75 L19.38,6.75 L15.42,16.65 L10.89,6.75 L5.04,6.75 L5.04,7.08 L6.93,9.36 C7.11,9.54 7.2,9.78 7.17,10.02 Z" id="Combined-Shape"></path>
            </g>
        </g>
    </g>
</svg>