<svg version="1.1" id="Layer_1" xmlns="http://www.w3.org/2000/svg" xmlns:xlink="http://www.w3.org/1999/xlink" x="0px" y="0px"
	 viewBox="0 0 100 100" style="enable-background:new 0 0 100 100;" xml:space="preserve">
<style type="text/css">
	.st0{fill:#12100E;}
	.st1{fill:#FFFFFF;}
</style>
<g id="Page-1">
	<g id="Monogram">
		<rect id="Rectangle-path" class="st0" width="100" height="100"/>
		<path id="Shape" class="st1" d="M23.9,33.4c0.1-0.8-0.2-1.6-0.8-2.2l-6.3-7.6v-1.1h19.5l15.1,33l13.2-33h18.6v1.1l-5.4,5.1
			c-0.5,0.4-0.7,0.9-0.6,1.5v37.8c-0.1,0.6,0.1,1.2,0.6,1.5l5.2,5.1v1.1H56.6v-1.1l5.4-5.3c0.5-0.5,0.5-0.7,0.5-1.5V37.5L47.5,75.8
			h-2L27.9,37.5v25.7c-0.1,1.1,0.2,2.2,1,2.9l7.1,8.6v1.1h-20v-1.1l7.1-8.6c0.8-0.8,1.1-1.9,0.9-2.9V33.4z"/>
	</g>
</g>
</svg>