<?xml version="1.0" encoding="utf-8"?>
<!-- Generator: Adobe Illustrator 19.0.1, SVG Export Plug-In . SVG Version: 6.00 Build 0)  -->
<svg version="1.1" id="Layer_1" xmlns="http://www.w3.org/2000/svg" xmlns:xlink="http://www.w3.org/1999/xlink" x="0px" y="0px"
	 viewBox="0 0 175 200" style="enable-background:new 0 0 175 200;" xml:space="preserve">
<style type="text/css">
	.st0{fill:none;stroke:#D8D8D8;stroke-width:2.25;stroke-linecap:round;stroke-linejoin:round;stroke-miterlimit:10;}
	.st1{fill:none;stroke:#012B30;stroke-width:2.25;stroke-linecap:round;stroke-linejoin:round;stroke-miterlimit:10;}
	.st2{fill:#FFFFFF;stroke:#012B30;stroke-width:2.25;stroke-linecap:round;stroke-linejoin:round;stroke-miterlimit:10;}
	.st3{fill:#012B30;}
	.st4{clip-path:url(#SVGID_2_);}
	.st5{fill:none;}
	.st6{clip-path:url(#SVGID_4_);}
</style>
<g>
	<g>
		<g>
			<path class="st0" d="M32.5,39.4c4.6,0,4.6,2,9.2,2c4.6,0,4.6-2,9.2-2c4.6,0,4.6,2,9.2,2c4.6,0,4.6-2,9.2-2c4.6,0,4.6,2,9.2,2
				s4.6-2,9.2-2c4.6,0,4.6,2,9.2,2c4.6,0,4.6-2,9.2-2c4.6,0,4.6,2,9.2,2c4.6,0,4.6-2,9.2-2c4.6,0,4.6,2,9.2,2c4.6,0,4.6-2,9.2-2"/>
		</g>
		<g>
			<path class="st0" d="M32.5,47.9c4.6,0,4.6,2,9.2,2c4.6,0,4.6-2,9.2-2c4.6,0,4.6,2,9.2,2c4.6,0,4.6-2,9.2-2c4.6,0,4.6,2,9.2,2
				s4.6-2,9.2-2c4.6,0,4.6,2,9.2,2c4.6,0,4.6-2,9.2-2c4.6,0,4.6,2,9.2,2c4.6,0,4.6-2,9.2-2c4.6,0,4.6,2,9.2,2c4.6,0,4.6-2,9.2-2"/>
		</g>
		<g>
			<path class="st0" d="M32.5,56.4c4.6,0,4.6,2,9.2,2c4.6,0,4.6-2,9.2-2c4.6,0,4.6,2,9.2,2c4.6,0,4.6-2,9.2-2c4.6,0,4.6,2,9.2,2
				s4.6-2,9.2-2c4.6,0,4.6,2,9.2,2c4.6,0,4.6-2,9.2-2c4.6,0,4.6,2,9.2,2c4.6,0,4.6-2,9.2-2c4.6,0,4.6,2,9.2,2c4.6,0,4.6-2,9.2-2"/>
		</g>
		<g>
			<path class="st0" d="M32.5,65c4.6,0,4.6,2,9.2,2c4.6,0,4.6-2,9.2-2c4.6,0,4.6,2,9.2,2c4.6,0,4.6-2,9.2-2c4.6,0,4.6,2,9.2,2
				s4.6-2,9.2-2c4.6,0,4.6,2,9.2,2c4.6,0,4.6-2,9.2-2c4.6,0,4.6,2,9.2,2c4.6,0,4.6-2,9.2-2c4.6,0,4.6,2,9.2,2c4.6,0,4.6-2,9.2-2"/>
		</g>
		<g>
			<path class="st0" d="M32.5,73.5c4.6,0,4.6,2,9.2,2c4.6,0,4.6-2,9.2-2c4.6,0,4.6,2,9.2,2c4.6,0,4.6-2,9.2-2c4.6,0,4.6,2,9.2,2
				s4.6-2,9.2-2c4.6,0,4.6,2,9.2,2c4.6,0,4.6-2,9.2-2c4.6,0,4.6,2,9.2,2c4.6,0,4.6-2,9.2-2c4.6,0,4.6,2,9.2,2c4.6,0,4.6-2,9.2-2"/>
		</g>
		<g>
			<path class="st0" d="M32.5,82c4.6,0,4.6,2,9.2,2c4.6,0,4.6-2,9.2-2c4.6,0,4.6,2,9.2,2c4.6,0,4.6-2,9.2-2c4.6,0,4.6,2,9.2,2
				s4.6-2,9.2-2c4.6,0,4.6,2,9.2,2c4.6,0,4.6-2,9.2-2c4.6,0,4.6,2,9.2,2c4.6,0,4.6-2,9.2-2c4.6,0,4.6,2,9.2,2c4.6,0,4.6-2,9.2-2"/>
		</g>
		<g>
			<path class="st0" d="M32.5,90.5c4.6,0,4.6,2,9.2,2c4.6,0,4.6-2,9.2-2c4.6,0,4.6,2,9.2,2c4.6,0,4.6-2,9.2-2c4.6,0,4.6,2,9.2,2
				s4.6-2,9.2-2c4.6,0,4.6,2,9.2,2c4.6,0,4.6-2,9.2-2c4.6,0,4.6,2,9.2,2c4.6,0,4.6-2,9.2-2c4.6,0,4.6,2,9.2,2c4.6,0,4.6-2,9.2-2"/>
		</g>
		<g>
			<path class="st0" d="M32.5,99c4.6,0,4.6,2,9.2,2c4.6,0,4.6-2,9.2-2c4.6,0,4.6,2,9.2,2c4.6,0,4.6-2,9.2-2c4.6,0,4.6,2,9.2,2
				s4.6-2,9.2-2c4.6,0,4.6,2,9.2,2c4.6,0,4.6-2,9.2-2c4.6,0,4.6,2,9.2,2c4.6,0,4.6-2,9.2-2c4.6,0,4.6,2,9.2,2c4.6,0,4.6-2,9.2-2"/>
		</g>
		<g>
			<path class="st0" d="M32.5,107.5c4.6,0,4.6,2,9.2,2c4.6,0,4.6-2,9.2-2c4.6,0,4.6,2,9.2,2c4.6,0,4.6-2,9.2-2c4.6,0,4.6,2,9.2,2
				s4.6-2,9.2-2c4.6,0,4.6,2,9.2,2c4.6,0,4.6-2,9.2-2c4.6,0,4.6,2,9.2,2c4.6,0,4.6-2,9.2-2c4.6,0,4.6,2,9.2,2c4.6,0,4.6-2,9.2-2"/>
		</g>
		<g>
			<path class="st0" d="M32.5,116c4.6,0,4.6,2,9.2,2c4.6,0,4.6-2,9.2-2c4.6,0,4.6,2,9.2,2c4.6,0,4.6-2,9.2-2c4.6,0,4.6,2,9.2,2
				s4.6-2,9.2-2c4.6,0,4.6,2,9.2,2c4.6,0,4.6-2,9.2-2c4.6,0,4.6,2,9.2,2c4.6,0,4.6-2,9.2-2c4.6,0,4.6,2,9.2,2c4.6,0,4.6-2,9.2-2"/>
		</g>
		<g>
			<path class="st0" d="M32.5,124.5c4.6,0,4.6,2,9.2,2c4.6,0,4.6-2,9.2-2c4.6,0,4.6,2,9.2,2c4.6,0,4.6-2,9.2-2c4.6,0,4.6,2,9.2,2
				s4.6-2,9.2-2c4.6,0,4.6,2,9.2,2c4.6,0,4.6-2,9.2-2c4.6,0,4.6,2,9.2,2c4.6,0,4.6-2,9.2-2c4.6,0,4.6,2,9.2,2c4.6,0,4.6-2,9.2-2"/>
		</g>
		<g>
			<path class="st0" d="M32.5,133c4.6,0,4.6,2,9.2,2c4.6,0,4.6-2,9.2-2c4.6,0,4.6,2,9.2,2c4.6,0,4.6-2,9.2-2c4.6,0,4.6,2,9.2,2
				s4.6-2,9.2-2c4.6,0,4.6,2,9.2,2c4.6,0,4.6-2,9.2-2c4.6,0,4.6,2,9.2,2c4.6,0,4.6-2,9.2-2c4.6,0,4.6,2,9.2,2c4.6,0,4.6-2,9.2-2"/>
		</g>
		<g>
			<path class="st0" d="M32.5,141.6c4.6,0,4.6,2,9.2,2c4.6,0,4.6-2,9.2-2c4.6,0,4.6,2,9.2,2c4.6,0,4.6-2,9.2-2c4.6,0,4.6,2,9.2,2
				s4.6-2,9.2-2c4.6,0,4.6,2,9.2,2c4.6,0,4.6-2,9.2-2c4.6,0,4.6,2,9.2,2c4.6,0,4.6-2,9.2-2c4.6,0,4.6,2,9.2,2c4.6,0,4.6-2,9.2-2"/>
		</g>
		<g>
			<path class="st0" d="M32.5,150.1c4.6,0,4.6,2,9.2,2c4.6,0,4.6-2,9.2-2c4.6,0,4.6,2,9.2,2c4.6,0,4.6-2,9.2-2c4.6,0,4.6,2,9.2,2
				s4.6-2,9.2-2c4.6,0,4.6,2,9.2,2c4.6,0,4.6-2,9.2-2c4.6,0,4.6,2,9.2,2c4.6,0,4.6-2,9.2-2c4.6,0,4.6,2,9.2,2c4.6,0,4.6-2,9.2-2"/>
		</g>
		<g>
			<path class="st0" d="M32.5,158.6c4.6,0,4.6,2,9.2,2c4.6,0,4.6-2,9.2-2c4.6,0,4.6,2,9.2,2c4.6,0,4.6-2,9.2-2c4.6,0,4.6,2,9.2,2
				s4.6-2,9.2-2c4.6,0,4.6,2,9.2,2c4.6,0,4.6-2,9.2-2c4.6,0,4.6,2,9.2,2c4.6,0,4.6-2,9.2-2c4.6,0,4.6,2,9.2,2c4.6,0,4.6-2,9.2-2"/>
		</g>
	</g>
	<path class="st1" d="M150.3,38.8c0,3.9,3.2,7.1,7.1,7.2c0,0,0,0,0,0v10.1c0,0,0,0,0,0c-3.9,0-7.1,3.2-7.1,7.1
		c0,3.9,3.2,7.1,7.1,7.1c0,0,0,0,0,0v10.2c0,0,0,0,0,0c-3.9,0-7.1,3.2-7.1,7.2c0,3.9,3.2,7.1,7.1,7.1c0,0,0,0,0,0v10.2c0,0,0,0,0,0
		c-3.9,0-7.1,3.2-7.1,7.1c0,3.9,3.2,7.1,7.1,7.1c0,0,0,0,0,0v10.1c0,0,0,0,0,0c-3.9,0-7.1,3.2-7.1,7.2s3.2,7.1,7.1,7.2c0,0,0,0,0,0
		V154c0,0,0,0,0,0c-3.9,0-7.1,3.2-7.1,7.1c0,3.9,3.2,7.1,7.1,7.1c0,0,0,0,0,0v14.8c0,0,0,0,0,0h-13.8c0,0,0,0,0,0
		c0-3.9-3.2-7.1-7.1-7.1c-3.9,0-7.1,3.2-7.1,7.1c0,0,0,0,0,0h-10.2c0,0,0,0,0,0c0-3.9-3.2-7.1-7.1-7.1c-3.9,0-7.1,3.2-7.1,7.1
		c0,0,0,0,0,0H94.7c0,0,0,0,0,0c0-3.9-3.2-7.1-7.1-7.1c-3.9,0-7.1,3.2-7.1,7.1c0,0,0,0,0,0H70.2c0,0,0,0,0,0c0-3.9-3.2-7.1-7.2-7.1
		c-3.9,0-7.1,3.2-7.1,7.1c0,0,0,0,0,0H45.7c0,0,0,0,0,0c0-3.9-3.2-7.1-7.1-7.1c-3.9,0-7.1,3.2-7.1,7.1c0,0,0,0,0,0H17.6c0,0,0,0,0,0
		v-14.8c0,0,0,0,0,0c3.9,0,7.1-3.2,7.1-7.1c0-3.9-3.2-7.1-7.1-7.1c0,0,0,0,0,0v-10.1c0,0,0,0,0,0c3.9,0,7.1-3.2,7.1-7.2
		s-3.2-7.1-7.1-7.2c0,0,0,0,0,0v-10.1c0,0,0,0,0,0c3.9,0,7.1-3.2,7.1-7.1c0-3.9-3.2-7.1-7.1-7.1c0,0,0,0,0,0V94.9c0,0,0,0,0,0
		c3.9,0,7.1-3.2,7.1-7.1c0-3.9-3.2-7.1-7.1-7.2c0,0,0,0,0,0V70.5c0,0,0,0,0,0c3.9,0,7.1-3.2,7.1-7.1c0-3.9-3.2-7.1-7.1-7.1
		c0,0,0,0,0,0V46c0,0,0,0,0,0c3.9,0,7.1-3.2,7.1-7.2c0-3.9-3.2-7.1-7.1-7.1c0,0,0,0,0,0V16.9c0,0,0,0,0,0h13.9c0,0,0,0,0,0
		c0,0,0,0,0,0c-0.2,2.5,0.9,4.9,3.1,6.2c5.5,3.2,11.2-0.8,11.2-6c0-0.1,0-0.1,0-0.2h10.2c0,0.1,0,0.1,0,0.2c0,5.3,5.7,9.2,11.2,6
		c2.2-1.2,3.3-3.7,3.1-6.2c0,0,0,0,0,0c0,0,0,0,0,0h10.2c0,0,0,0,0,0c0,0,0,0,0,0.1c-0.1,2.5,0.9,4.9,3.1,6.1
		c5.6,3.1,11.2-0.8,11.2-6c0-0.1,0-0.1,0-0.2h10.2c0,0,0,0,0,0c0,0,0,0,0,0.1c-0.1,2.5,0.9,4.9,3.1,6.1c5.6,3.1,11.2-0.8,11.2-6
		c0-0.1,0-0.1,0-0.2h10.2c0,0,0,0,0,0c0,0,0,0,0,0c-0.2,2.5,0.9,4.9,3.1,6.2c5.5,3.2,11.2-0.8,11.2-6c0-0.1,0-0.1,0-0.2h13.9
		c0,0,0,0,0,0v14.8c0,0,0,0,0,0C153.5,31.7,150.3,34.9,150.3,38.8z"/>
	<rect x="32.5" y="31.9" class="st1" width="109.9" height="136.2"/>
	<path class="st1" d="M76,45.5c0,9,5.7,58.8,66.5,88.8"/>
	<line class="st1" x1="103.2" y1="45.4" x2="103.2" y2="40.4"/>
	<line class="st1" x1="71.9" y1="45.4" x2="71.9" y2="40.4"/>
	<line class="st1" x1="136.7" y1="138.8" x2="136.7" y2="111.7"/>
	<line class="st1" x1="130.9" y1="138.8" x2="130.9" y2="104.7"/>
	<line class="st1" x1="125" y1="138.8" x2="125" y2="96.7"/>
	<line class="st1" x1="119.2" y1="138.8" x2="119.2" y2="86.8"/>
	<line class="st1" x1="113.3" y1="138.8" x2="113.3" y2="74"/>
	<line class="st1" x1="38.4" y1="126" x2="38.4" y2="111.7"/>
	<line class="st1" x1="38.4" y1="138.8" x2="38.4" y2="131.4"/>
	<line class="st1" x1="44.3" y1="122.1" x2="44.3" y2="104.7"/>
	<line class="st1" x1="44.3" y1="138.8" x2="44.3" y2="127.8"/>
	<line class="st1" x1="50.1" y1="118.5" x2="50.1" y2="96.7"/>
	<line class="st1" x1="50.1" y1="138.8" x2="50.1" y2="124"/>
	<line class="st1" x1="56" y1="138.8" x2="56" y2="119.9"/>
	<line class="st1" x1="56" y1="114.3" x2="56" y2="87.5"/>
	<line class="st1" x1="61.8" y1="109.5" x2="61.8" y2="74.5"/>
	<line class="st1" x1="61.8" y1="139.6" x2="61.8" y2="115.2"/>
	<line class="st1" x1="98.7" y1="145.8" x2="76.4" y2="168.1"/>
	<line class="st1" x1="98.7" y1="168.1" x2="76.4" y2="145.8"/>
	<polyline class="st2" points="107.5,145.8 125.7,145.8 130.5,145.8 130.6,145.8 142.4,145.8 142.5,145.8 142.5,138.8 130.5,138.8 
		125.8,138.8 107.5,138.8 	"/>
	<path class="st2" d="M67.6,45.4v122.5h8.5v-46.5c0-1.7,1.3-3,3-3H96c1.7,0,3,1.3,3,3v46.5h8.5V45.4H99v5.7H76.2v-5.7H67.6z
		 M76.2,87.2c0-1.7,1.3-3,3-3H96c1.7,0,3,1.3,3,3v20.1H76.2V87.2z M76.2,60c0-1.7,1.3-3,3-3H96c1.7,0,3,1.3,3,3v16H76.2V60z"/>
	<polyline class="st2" points="32.6,145.8 67,145.8 76.2,145.8 76.4,145.8 98.7,145.8 99,145.8 99,138.8 76.2,138.8 67.2,138.8 
		32.6,138.8 	"/>
	<line class="st1" x1="76.2" y1="107.3" x2="76.2" y2="138.8"/>
	<line class="st1" x1="81.7" y1="93.3" x2="81.7" y2="138.8"/>
	<line class="st1" x1="87.6" y1="84.2" x2="87.6" y2="138.8"/>
	<line class="st1" x1="93.4" y1="71.7" x2="93.4" y2="138.8"/>
	<line class="st1" x1="107.5" y1="71" x2="99" y2="71"/>
	<line class="st1" x1="76.2" y1="71" x2="67.6" y2="71"/>
	<line class="st1" x1="107.5" y1="100.5" x2="99" y2="100.5"/>
	<line class="st1" x1="76.2" y1="100.5" x2="67.6" y2="100.5"/>
	<line class="st1" x1="76.2" y1="87.2" x2="76.2" y2="60"/>
	<path class="st1" d="M107.5,45.4c0,7.1,3.6,42.5,35,71.8"/>
	<path class="st1" d="M32.5,117.4c31.5-29.3,35.1-64.9,35.1-72"/>
	<path class="st1" d="M32.6,134.2C93.3,104.3,99,54.4,99,45.4"/>
	<line class="st1" x1="99" y1="76" x2="99" y2="87.2"/>
	<line class="st1" x1="99" y1="51.1" x2="99" y2="60"/>
</g>
</svg>
