<?xml version="1.0" encoding="utf-8"?>
<!-- Generator: Adobe Illustrator 19.0.1, SVG Export Plug-In . SVG Version: 6.00 Build 0)  -->
<svg version="1.1" id="Layer_1" xmlns="http://www.w3.org/2000/svg" xmlns:xlink="http://www.w3.org/1999/xlink" x="0px" y="0px"
	 viewBox="0 0 175 200" style="enable-background:new 0 0 175 200;" xml:space="preserve">
<style type="text/css">
	.st0{fill:none;stroke:#D8D8D8;stroke-width:2.25;stroke-linecap:round;stroke-linejoin:round;stroke-miterlimit:10;}
	.st1{fill:none;stroke:#012B30;stroke-width:2.25;stroke-linecap:round;stroke-linejoin:round;stroke-miterlimit:10;}
	.st2{fill:#FFFFFF;stroke:#012B30;stroke-width:2.25;stroke-linecap:round;stroke-linejoin:round;stroke-miterlimit:10;}
	.st3{fill:#012B30;}
	.st4{clip-path:url(#SVGID_2_);}
	.st5{fill:none;}
	.st6{clip-path:url(#SVGID_4_);}
</style>
<g>
	<g>
		<path class="st0" d="M32.5,39.4c4.6,0,4.6,2,9.2,2c4.6,0,4.6-2,9.2-2c4.6,0,4.6,2,9.2,2c4.6,0,4.6-2,9.2-2c4.6,0,4.6,2,9.2,2
			s4.6-2,9.2-2c4.6,0,4.6,2,9.2,2c4.6,0,4.6-2,9.2-2c4.6,0,4.6,2,9.2,2c4.6,0,4.6-2,9.2-2c4.6,0,4.6,2,9.2,2c4.6,0,4.6-2,9.2-2"/>
	</g>
	<g>
		<path class="st0" d="M32.5,47.9c4.6,0,4.6,2,9.2,2c4.6,0,4.6-2,9.2-2c4.6,0,4.6,2,9.2,2c4.6,0,4.6-2,9.2-2c4.6,0,4.6,2,9.2,2
			s4.6-2,9.2-2c4.6,0,4.6,2,9.2,2c4.6,0,4.6-2,9.2-2c4.6,0,4.6,2,9.2,2c4.6,0,4.6-2,9.2-2c4.6,0,4.6,2,9.2,2c4.6,0,4.6-2,9.2-2"/>
	</g>
	<g>
		<path class="st0" d="M32.5,56.4c4.6,0,4.6,2,9.2,2c4.6,0,4.6-2,9.2-2c4.6,0,4.6,2,9.2,2c4.6,0,4.6-2,9.2-2c4.6,0,4.6,2,9.2,2
			s4.6-2,9.2-2c4.6,0,4.6,2,9.2,2c4.6,0,4.6-2,9.2-2c4.6,0,4.6,2,9.2,2c4.6,0,4.6-2,9.2-2c4.6,0,4.6,2,9.2,2c4.6,0,4.6-2,9.2-2"/>
	</g>
	<g>
		<path class="st0" d="M32.5,65c4.6,0,4.6,2,9.2,2c4.6,0,4.6-2,9.2-2c4.6,0,4.6,2,9.2,2c4.6,0,4.6-2,9.2-2c4.6,0,4.6,2,9.2,2
			s4.6-2,9.2-2c4.6,0,4.6,2,9.2,2c4.6,0,4.6-2,9.2-2c4.6,0,4.6,2,9.2,2c4.6,0,4.6-2,9.2-2c4.6,0,4.6,2,9.2,2c4.6,0,4.6-2,9.2-2"/>
	</g>
	<g>
		<path class="st0" d="M32.5,73.5c4.6,0,4.6,2,9.2,2c4.6,0,4.6-2,9.2-2c4.6,0,4.6,2,9.2,2c4.6,0,4.6-2,9.2-2c4.6,0,4.6,2,9.2,2
			s4.6-2,9.2-2c4.6,0,4.6,2,9.2,2c4.6,0,4.6-2,9.2-2c4.6,0,4.6,2,9.2,2c4.6,0,4.6-2,9.2-2c4.6,0,4.6,2,9.2,2c4.6,0,4.6-2,9.2-2"/>
	</g>
	<g>
		<path class="st0" d="M32.5,82c4.6,0,4.6,2,9.2,2c4.6,0,4.6-2,9.2-2c4.6,0,4.6,2,9.2,2c4.6,0,4.6-2,9.2-2c4.6,0,4.6,2,9.2,2
			s4.6-2,9.2-2c4.6,0,4.6,2,9.2,2c4.6,0,4.6-2,9.2-2c4.6,0,4.6,2,9.2,2c4.6,0,4.6-2,9.2-2c4.6,0,4.6,2,9.2,2c4.6,0,4.6-2,9.2-2"/>
	</g>
	<g>
		<path class="st0" d="M32.5,90.5c4.6,0,4.6,2,9.2,2c4.6,0,4.6-2,9.2-2c4.6,0,4.6,2,9.2,2c4.6,0,4.6-2,9.2-2c4.6,0,4.6,2,9.2,2
			s4.6-2,9.2-2c4.6,0,4.6,2,9.2,2c4.6,0,4.6-2,9.2-2c4.6,0,4.6,2,9.2,2c4.6,0,4.6-2,9.2-2c4.6,0,4.6,2,9.2,2c4.6,0,4.6-2,9.2-2"/>
	</g>
	<g>
		<path class="st0" d="M32.5,99c4.6,0,4.6,2,9.2,2c4.6,0,4.6-2,9.2-2c4.6,0,4.6,2,9.2,2c4.6,0,4.6-2,9.2-2c4.6,0,4.6,2,9.2,2
			s4.6-2,9.2-2c4.6,0,4.6,2,9.2,2c4.6,0,4.6-2,9.2-2c4.6,0,4.6,2,9.2,2c4.6,0,4.6-2,9.2-2c4.6,0,4.6,2,9.2,2c4.6,0,4.6-2,9.2-2"/>
	</g>
	<g>
		<path class="st0" d="M32.5,107.5c4.6,0,4.6,2,9.2,2c4.6,0,4.6-2,9.2-2c4.6,0,4.6,2,9.2,2c4.6,0,4.6-2,9.2-2c4.6,0,4.6,2,9.2,2
			s4.6-2,9.2-2c4.6,0,4.6,2,9.2,2c4.6,0,4.6-2,9.2-2c4.6,0,4.6,2,9.2,2c4.6,0,4.6-2,9.2-2c4.6,0,4.6,2,9.2,2c4.6,0,4.6-2,9.2-2"/>
	</g>
	<g>
		<path class="st0" d="M32.5,116c4.6,0,4.6,2,9.2,2c4.6,0,4.6-2,9.2-2c4.6,0,4.6,2,9.2,2c4.6,0,4.6-2,9.2-2c4.6,0,4.6,2,9.2,2
			s4.6-2,9.2-2c4.6,0,4.6,2,9.2,2c4.6,0,4.6-2,9.2-2c4.6,0,4.6,2,9.2,2c4.6,0,4.6-2,9.2-2c4.6,0,4.6,2,9.2,2c4.6,0,4.6-2,9.2-2"/>
	</g>
	<g>
		<path class="st0" d="M32.5,124.5c4.6,0,4.6,2,9.2,2c4.6,0,4.6-2,9.2-2c4.6,0,4.6,2,9.2,2c4.6,0,4.6-2,9.2-2c4.6,0,4.6,2,9.2,2
			s4.6-2,9.2-2c4.6,0,4.6,2,9.2,2c4.6,0,4.6-2,9.2-2c4.6,0,4.6,2,9.2,2c4.6,0,4.6-2,9.2-2c4.6,0,4.6,2,9.2,2c4.6,0,4.6-2,9.2-2"/>
	</g>
	<g>
		<path class="st0" d="M32.5,133c4.6,0,4.6,2,9.2,2c4.6,0,4.6-2,9.2-2c4.6,0,4.6,2,9.2,2c4.6,0,4.6-2,9.2-2c4.6,0,4.6,2,9.2,2
			s4.6-2,9.2-2c4.6,0,4.6,2,9.2,2c4.6,0,4.6-2,9.2-2c4.6,0,4.6,2,9.2,2c4.6,0,4.6-2,9.2-2c4.6,0,4.6,2,9.2,2c4.6,0,4.6-2,9.2-2"/>
	</g>
	<g>
		<path class="st0" d="M32.5,141.6c4.6,0,4.6,2,9.2,2c4.6,0,4.6-2,9.2-2c4.6,0,4.6,2,9.2,2c4.6,0,4.6-2,9.2-2c4.6,0,4.6,2,9.2,2
			s4.6-2,9.2-2c4.6,0,4.6,2,9.2,2c4.6,0,4.6-2,9.2-2c4.6,0,4.6,2,9.2,2c4.6,0,4.6-2,9.2-2c4.6,0,4.6,2,9.2,2c4.6,0,4.6-2,9.2-2"/>
	</g>
	<g>
		<path class="st1" d="M32.5,158.6c4.6,0,4.6,2,9.2,2c4.6,0,4.6-2,9.2-2c4.6,0,4.6,2,9.2,2c4.6,0,4.6-2,9.2-2c4.6,0,4.6,2,9.2,2
			s4.6-2,9.2-2c4.6,0,4.6,2,9.2,2c4.6,0,4.6-2,9.2-2c4.6,0,4.6,2,9.2,2c4.6,0,4.6-2,9.2-2c4.6,0,4.6,2,9.2,2c4.6,0,4.6-2,9.2-2"/>
	</g>
	<path class="st1" d="M150.3,38.8c0,3.9,3.2,7.1,7.1,7.2c0,0,0,0,0,0v10.1c0,0,0,0,0,0c-3.9,0-7.1,3.2-7.1,7.1
		c0,3.9,3.2,7.1,7.1,7.1c0,0,0,0,0,0v10.2c0,0,0,0,0,0c-3.9,0-7.1,3.2-7.1,7.2c0,3.9,3.2,7.1,7.1,7.1c0,0,0,0,0,0v10.2c0,0,0,0,0,0
		c-3.9,0-7.1,3.2-7.1,7.1c0,3.9,3.2,7.1,7.1,7.1c0,0,0,0,0,0v10.1c0,0,0,0,0,0c-3.9,0-7.1,3.2-7.1,7.2s3.2,7.1,7.1,7.2c0,0,0,0,0,0
		V154c0,0,0,0,0,0c-3.9,0-7.1,3.2-7.1,7.1c0,3.9,3.2,7.1,7.1,7.1c0,0,0,0,0,0v14.8c0,0,0,0,0,0h-13.8c0,0,0,0,0,0
		c0-3.9-3.2-7.1-7.1-7.1c-3.9,0-7.1,3.2-7.1,7.1c0,0,0,0,0,0h-10.2c0,0,0,0,0,0c0-3.9-3.2-7.1-7.1-7.1c-3.9,0-7.1,3.2-7.1,7.1
		c0,0,0,0,0,0H94.7c0,0,0,0,0,0c0-3.9-3.2-7.1-7.1-7.1c-3.9,0-7.1,3.2-7.1,7.1c0,0,0,0,0,0H70.2c0,0,0,0,0,0c0-3.9-3.2-7.1-7.2-7.1
		c-3.9,0-7.1,3.2-7.1,7.1c0,0,0,0,0,0H45.7c0,0,0,0,0,0c0-3.9-3.2-7.1-7.1-7.1c-3.9,0-7.1,3.2-7.1,7.1c0,0,0,0,0,0H17.6c0,0,0,0,0,0
		v-14.8c0,0,0,0,0,0c4,0,7.1-3.2,7.1-7.1c0-3.9-3.2-7.1-7.1-7.1c0,0,0,0,0,0v-10.1c0,0,0,0,0,0c4,0,7.1-3.2,7.1-7.2
		s-3.2-7.1-7.1-7.2c0,0,0,0,0,0v-10.1c0,0,0,0,0,0c4,0,7.1-3.2,7.1-7.1c0-3.9-3.2-7.1-7.1-7.1c0,0,0,0,0,0V94.9c0,0,0,0,0,0
		c4,0,7.1-3.2,7.1-7.1c0-3.9-3.2-7.1-7.1-7.2c0,0,0,0,0,0V70.5c0,0,0,0,0,0c4,0,7.1-3.2,7.1-7.1c0-3.9-3.2-7.1-7.1-7.1c0,0,0,0,0,0
		V46c0,0,0,0,0,0c4,0,7.1-3.2,7.1-7.2c0-3.9-3.2-7.1-7.1-7.1c0,0,0,0,0,0V16.9c0,0,0,0,0,0h13.9c0,0,0,0,0,0c0,0,0,0,0,0
		c-0.2,2.5,0.9,4.9,3.1,6.2c5.5,3.2,11.2-0.8,11.2-6c0-0.1,0-0.1,0-0.2h10.2c0,0.1,0,0.1,0,0.2c0,5.3,5.7,9.2,11.2,6
		c2.2-1.2,3.3-3.7,3.1-6.2c0,0,0,0,0,0c0,0,0,0,0,0h10.2c0,0,0,0,0,0c0,0,0,0,0,0.1c-0.1,2.5,0.9,4.9,3.1,6.1
		c5.6,3.1,11.2-0.8,11.2-6c0-0.1,0-0.1,0-0.2h10.2c0,0,0,0,0,0c0,0,0,0,0,0.1c-0.1,2.5,0.9,4.9,3.1,6.1c5.6,3.1,11.2-0.8,11.2-6
		c0-0.1,0-0.1,0-0.2h10.2c0,0,0,0,0,0c0,0,0,0,0,0c-0.2,2.5,0.9,4.9,3.1,6.2c5.5,3.2,11.2-0.8,11.2-6c0-0.1,0-0.1,0-0.2h13.9
		c0,0,0,0,0,0v14.8c0,0,0,0,0,0C153.5,31.7,150.3,34.9,150.3,38.8z"/>
	<rect x="32.5" y="31.9" class="st1" width="109.9" height="136.2"/>
	<g>
		<path class="st2" d="M105.8,66v3.3c0,0,0,8.6-6.6,20.8h-8.5l-1.4,3.5H77.7c-1.7-2.8-4.6-3.6-6.8-3.7c0-5,2.9-7.3,6.8-12.2l1.9-2.4
			l5.4-6.8c5-6.6,3-7.8,1.5-9.3v-4.9c0-1.1-1.3-1.6-2.1-0.9l-3.1,2.7c0,0,0,0,0,0c-1.8-0.9-3.5-1.2-5.1-1c1.2-4,3.9-6.7,8.7-6.7h3.2
			C97.9,48.6,105.8,56.4,105.8,66z"/>
		<path class="st2" d="M85.1,68.6l-5.4,6.8c-1.8,2.3-4.8,3.3-7.7,2.6l-2.7-0.7L68.1,73l2.8-0.8c0.9,0.9,2.2,1.2,3.5,0.9
			c2.1-0.6,3.2-2.8,2.4-4.9c-0.7-1.8-2.7-2.7-4.6-2.2l-2.4,2.2c-1.9,0.5-3.8-0.6-4.3-2.4V62l6.6-3.5c1.1-1.8,2.6-2.9,4.3-3.2
			c1.5-0.3,3.3,0,5.1,1c0,0,0,0,0,0l3.1-2.7c0.8-0.7,2.1-0.1,2.1,0.9v4.9C88.1,60.8,90.1,62,85.1,68.6z"/>
		<path class="st1" d="M90.6,90.1l5.9-14.5c1.4-2.7,2.3-5.7,2.7-8.7c0.1-0.5,0.1-0.9,0.1-1.2"/>
		<path class="st2" d="M105.8,88c2,0,3.8-0.9,3.8-0.9s-3.8-3.1-3.8-8.8v-9c0,0,0,8.6-6.7,20.8h-8.5l-1.4,3.5H77.7
			c-2.8-4.8-9.3-3.6-9.6-3.5c1.8,2.2,2.9,5.1,2.9,8.2c0,2-0.5,4-1.3,5.7c-1.3,2.7-2.2,5.5-2.2,8.5v0.6c0,10.5,8.5,18.9,18.9,18.9
			h0.4c10.5,0,18.9-8.5,18.9-18.9V97.7c2,0,3.8-0.8,3.8-0.8S105.8,93.7,105.8,88z M82.4,119.9c-4.2,0-7.7-3.4-7.7-7.7
			c0-4.2,3.4-7.7,7.7-7.7c2.4,0,4.6,1.1,6,2.9c1,1.3,1.7,3,1.7,4.8C90.1,116.5,86.6,119.9,82.4,119.9z"/>
		<path class="st1" d="M76.2,91.9l16.7-24.1c0,0,4.9-5.5-1.2-10.9"/>
		<circle class="st3" cx="76.9" cy="59.7" r="1.6"/>
		<line class="st1" x1="73.8" y1="120.9" x2="70.9" y2="123.8"/>
		<line class="st1" x1="82.4" y1="124.5" x2="82.4" y2="131.6"/>
		<line class="st1" x1="91.1" y1="120.9" x2="98.3" y2="128.2"/>
		<line class="st1" x1="94.7" y1="112.3" x2="105.8" y2="112.3"/>
		<line class="st1" x1="70.2" y1="112.3" x2="68.2" y2="112.3"/>
		<line class="st1" x1="71.1" y1="117" x2="68.2" y2="118.2"/>
		<line class="st1" x1="77.7" y1="123.6" x2="75.6" y2="128.7"/>
		<line class="st1" x1="87.3" y1="123.7" x2="90.6" y2="131.6"/>
		<line class="st1" x1="93.7" y1="117" x2="103.9" y2="121.2"/>
		<line class="st1" x1="93.7" y1="107.6" x2="105.7" y2="102.6"/>
		<line class="st1" x1="91.7" y1="100.1" x2="105.7" y2="94.3"/>
		<path class="st1" d="M77.7,93.6c0.8,1.4,1.3,3.2,1.3,5.7c10.4-2.4,9.6,6.6,9.4,8.2"/>
		<path class="st2" d="M99.3,94.3c3.7,3.6,6.4,3.4,6.4,3.4c2,0,3.8-0.8,3.8-0.8s-3.8-3.1-3.8-8.8"/>
	</g>
	<polyline class="st2" points="124.7,150.1 124.7,132 50.3,132 50.3,150.2 	"/>
	<g>
		<path class="st1" d="M32.5,150.1c4.6,0,4.6,2,9.2,2c4.6,0,4.6-2,9.2-2c4.6,0,4.6,2,9.2,2c4.6,0,4.6-2,9.2-2c4.6,0,4.6,2,9.2,2
			s4.6-2,9.2-2c4.6,0,4.6,2,9.2,2c4.6,0,4.6-2,9.2-2c4.6,0,4.6,2,9.2,2c4.6,0,4.6-2,9.2-2c4.6,0,4.6,2,9.2,2c4.6,0,4.6-2,9.2-2"/>
	</g>
</g>
</svg>
