<svg version="1.1" id="Layer_1" xmlns="http://www.w3.org/2000/svg" xmlns:xlink="http://www.w3.org/1999/xlink" x="0px" y="0px"
	 viewBox="0 0 762 156" style="enable-background:new 0 0 762 156;" xml:space="preserve">
<style type="text/css">
	.st0{fill:#012B30;}
</style>
<polygon class="st0" points="94.5,41.5 94.5,154.4 1,154.4 "/>
<path class="st0" d="M94.5,1c0,25.8-20.9,46.7-46.7,46.7S1,26.8,1,1H94.5z"/>
<path class="st0" d="M109.9,154.4c0-25.8,20.9-46.7,46.7-46.8c25.8,0,46.7,20.9,46.8,46.7c0,0,0,0,0,0H109.9z"/>
<polygon class="st0" points="109.9,113.9 109.9,1 203.4,1 "/>
<path class="st0" d="M255.1,78.2c0-20,15.6-35.4,35.5-35.4c15.1,0,27.1,8.6,32.2,20.8l-13.1,5.6c-3.4-7.9-10.3-12.8-19.2-12.8
	c-12.1,0-21.2,9.7-21.2,21.8c0,12,9.2,21.8,21.5,21.8c9.2,0,16-5.7,19.2-13.3l13.2,5.6c-5.4,12.5-16.7,21.4-32.6,21.4
	C270.5,113.5,255.1,97.7,255.1,78.2z"/>
<path class="st0" d="M333.7,44.2h14.6v10.7c3.7-6.9,10.3-10.7,19.9-10.7h6.5V58h-8.8c-12.4,0-17.4,6.3-17.4,20.4v33.7h-14.7V44.2z"
	/>
<path class="st0" d="M380.7,78.4c0-20,15.4-35.6,35.4-35.6c20.1,0,35,14.6,35,34.7v5.7h-56.3c1.9,10.5,10.1,17.4,21.9,17.4
	c9.2,0,16.3-4.9,19.9-12.2l12,6.7c-6,11.2-16.7,18.5-31.8,18.5C395.2,113.5,380.7,98.1,380.7,78.4z M395.4,70.8h40.8
	c-2.2-9.8-9.7-15.2-20.1-15.2C406,55.6,398.2,61.8,395.4,70.8z"/>
<path class="st0" d="M460.4,78.2c0-21.8,16.2-35.4,34-35.4c9,0,17.5,3.9,22.6,10.2v-8.8h14.6v68H517v-9.4
	c-5.2,6.7-13.7,10.7-22.7,10.7C477,113.5,460.4,99.8,460.4,78.2z M517.8,78c0-12.1-9.1-22-21.5-22c-12.1,0-21.5,9.7-21.5,22
	c0,12.4,9.4,22.2,21.5,22.2C508.7,100.2,517.8,90.3,517.8,78z"/>
<path class="st0" d="M542.6,44.2h11.6v-16l14.7-8v24.1h14.4v13.1h-14.4v27.1c0,12.2,1.9,14.1,14.4,14.1v13.7h-2.2
	c-20.7,0-26.9-6.5-26.9-27.7V57.2h-11.6V44.2z"/>
<path class="st0" d="M602.7,14.1c5.7,0,9.8,4.1,9.8,9.8c0,5.7-4.1,9.8-9.8,9.8c-5.8,0-9.8-4.1-9.8-9.8
	C592.9,18.2,597,14.1,602.7,14.1z M595.4,44.2H610v68h-14.7V44.2z"/>
<path class="st0" d="M620.1,44.2h15.4l18.1,49.1l17.8-49.1h15.1l-25.7,68h-14.6L620.1,44.2z"/>
<path class="st0" d="M689.9,78.4c0-20,15.4-35.6,35.4-35.6c20.1,0,35,14.6,35,34.7v5.7h-56.3c1.9,10.5,10.1,17.4,21.9,17.4
	c9.2,0,16.3-4.9,19.9-12.2l12,6.7c-6,11.2-16.7,18.5-31.8,18.5C704.3,113.5,689.9,98.1,689.9,78.4z M704.6,70.8h40.8
	c-2.2-9.8-9.7-15.2-20.1-15.2C715.2,55.6,707.3,61.8,704.6,70.8z"/>
</svg>