<svg version="1.1" id="Layer_1" xmlns="http://www.w3.org/2000/svg" xmlns:xlink="http://www.w3.org/1999/xlink" x="0px" y="0px"
	 viewBox="0 0 100 100" style="enable-background:new 0 0 100 100;" xml:space="preserve">
<style type="text/css">
	.st0{fill-rule:evenodd;clip-rule:evenodd;}
</style>
<path class="st0" d="M50,98.9c-27,0-49-22-49-48.9C1,23,23,1,50,1c27,0,49,22,49,48.9C99,76.9,77,98.9,50,98.9L50,98.9z M91.3,56.6
	c-1.4-0.5-13-3.9-26.1-1.8c5.5,15,7.7,27.3,8.1,29.8C82.8,78.3,89.5,68.3,91.3,56.6L91.3,56.6z M66.3,88.5
	c-0.6-3.7-3.1-16.4-8.9-31.7c-0.1,0-0.2,0.1-0.3,0.1C33.5,65.1,25.1,81.4,24.3,83c7.1,5.5,16,8.8,25.7,8.8
	C55.8,91.8,61.3,90.6,66.3,88.5L66.3,88.5z M18.9,77.9c0.9-1.6,12.4-20.6,34-27.6c0.5-0.2,1.1-0.3,1.6-0.5c-1.1-2.4-2.2-4.8-3.4-7.1
	c-20.9,6.2-41.2,6-43,5.9c0,0.4,0,0.8,0,1.3C8.1,60.7,12.2,70.5,18.9,77.9L18.9,77.9z M9,41.4c1.9,0,19.1,0.1,38.7-5.1
	C40.8,24,33.3,13.7,32.2,12.2C20.5,17.7,11.7,28.5,9,41.4L9,41.4z M40.2,9.4c1.2,1.5,8.8,11.9,15.6,24.5c14.9-5.6,21.2-14,21.9-15.1
	C70.4,12.2,60.6,8.2,50,8.2C46.6,8.2,43.3,8.6,40.2,9.4L40.2,9.4z M82.4,23.6C81.5,24.8,74.5,33.7,59,40c1,2,1.9,4,2.8,6.1
	c0.3,0.7,0.6,1.4,0.9,2.2c13.9-1.7,27.8,1.1,29.1,1.3C91.8,39.7,88.2,30.7,82.4,23.6L82.4,23.6z"/>
</svg>
