<svg version="1.1" id="Layer_1" xmlns="http://www.w3.org/2000/svg" xmlns:xlink="http://www.w3.org/1999/xlink" x="0px" y="0px"
	 viewBox="0 0 100 100" style="enable-background:new 0 0 100 100;" xml:space="preserve">
<path d="M50,9.8c13.1,0,14.6,0,19.8,0.3c4.8,0.2,7.4,1,9.1,1.7c2.3,0.9,3.9,2,5.6,3.7c1.7,1.7,2.8,3.3,3.7,5.6
	c0.7,1.7,1.5,4.3,1.7,9.1c0.2,5.2,0.3,6.7,0.3,19.8s0,14.6-0.3,19.8c-0.2,4.8-1,7.4-1.7,9.1c-0.9,2.3-2,3.9-3.7,5.6
	c-1.7,1.7-3.3,2.8-5.6,3.7c-1.7,0.7-4.3,1.5-9.1,1.7c-5.2,0.2-6.7,0.3-19.8,0.3s-14.6,0-19.8-0.3c-4.8-0.2-7.4-1-9.1-1.7
	c-2.3-0.9-3.9-2-5.6-3.7c-1.7-1.7-2.8-3.3-3.7-5.6c-0.7-1.7-1.5-4.3-1.7-9.1C9.9,64.6,9.8,63.1,9.8,50s0-14.6,0.3-19.8
	c0.2-4.8,1-7.4,1.7-9.1c0.9-2.3,2-3.9,3.7-5.6c1.7-1.7,3.3-2.8,5.6-3.7c1.7-0.7,4.3-1.5,9.1-1.7C35.4,9.9,36.9,9.8,50,9.8 M50,1
	C36.7,1,35,1.1,29.8,1.3C24.6,1.5,21,2.4,17.9,3.6c-3.2,1.3-6,2.9-8.7,5.7c-2.7,2.7-4.4,5.5-5.7,8.7c-1.2,3.1-2,6.7-2.3,11.9
	C1.1,35,1,36.7,1,50c0,13.3,0.1,15,0.3,20.2c0.2,5.2,1.1,8.8,2.3,11.9c1.3,3.2,2.9,6,5.7,8.7c2.7,2.7,5.5,4.4,8.7,5.7
	c3.1,1.2,6.7,2,11.9,2.3C35,98.9,36.7,99,50,99s15-0.1,20.2-0.3c5.2-0.2,8.8-1.1,11.9-2.3c3.2-1.3,6-2.9,8.7-5.7
	c2.7-2.7,4.4-5.5,5.7-8.7c1.2-3.1,2-6.7,2.3-11.9C98.9,65,99,63.3,99,50s-0.1-15-0.3-20.2c-0.2-5.2-1.1-8.8-2.3-11.9
	c-1.3-3.2-2.9-6-5.7-8.7c-2.7-2.7-5.5-4.4-8.7-5.7c-3.1-1.2-6.7-2-11.9-2.3C65,1.1,63.3,1,50,1L50,1z" fill="white"/>
<path d="M50,24.8c-13.9,0-25.2,11.3-25.2,25.2S36.1,75.2,50,75.2S75.2,63.9,75.2,50S63.9,24.8,50,24.8z M50,66.3
	c-9,0-16.3-7.3-16.3-16.3c0-9,7.3-16.3,16.3-16.3c9,0,16.3,7.3,16.3,16.3C66.3,59,59,66.3,50,66.3z" fill="white"/>
<circle cx="76.2" cy="23.8" r="5.9" fill="white"/>
</svg>