<?xml version="1.0" encoding="utf-8"?>
<!-- Generator: Adobe Illustrator 19.0.1, SVG Export Plug-In . SVG Version: 6.00 Build 0)  -->
<svg version="1.1" id="Layer_1" xmlns="http://www.w3.org/2000/svg" xmlns:xlink="http://www.w3.org/1999/xlink" x="0px" y="0px"
	 viewBox="-12 -80 175 200" style="enable-background:new -12 -80 175 200;" xml:space="preserve">
<style type="text/css">
	.st0{fill:none;stroke:#D8D8D8;stroke-width:2.25;stroke-linecap:round;stroke-linejoin:round;stroke-miterlimit:10;}
	.st1{fill:none;stroke:#012B30;stroke-width:2.25;stroke-linecap:round;stroke-linejoin:round;stroke-miterlimit:10;}
	.st2{fill:#FFFFFF;stroke:#012B30;stroke-width:2.25;stroke-linecap:round;stroke-linejoin:round;stroke-miterlimit:10;}
</style>
<g>
	<g>
		<g>
			<path class="st0" d="M20.5-40.6c4.6,0,4.6,2,9.2,2s4.6-2,9.2-2s4.6,2,9.2,2s4.6-2,9.2-2s4.6,2,9.2,2s4.6-2,9.2-2s4.6,2,9.2,2
				s4.6-2,9.2-2s4.6,2,9.2,2s4.6-2,9.2-2c4.6,0,4.6,2,9.2,2c4.6,0,4.6-2,9.2-2"/>
		</g>
		<g>
			<path class="st0" d="M20.5-32.1c4.6,0,4.6,2,9.2,2s4.6-2,9.2-2s4.6,2,9.2,2s4.6-2,9.2-2s4.6,2,9.2,2s4.6-2,9.2-2s4.6,2,9.2,2
				s4.6-2,9.2-2s4.6,2,9.2,2s4.6-2,9.2-2c4.6,0,4.6,2,9.2,2c4.6,0,4.6-2,9.2-2"/>
		</g>
		<g>
			<path class="st0" d="M20.5-23.6c4.6,0,4.6,2,9.2,2s4.6-2,9.2-2s4.6,2,9.2,2s4.6-2,9.2-2s4.6,2,9.2,2s4.6-2,9.2-2s4.6,2,9.2,2
				s4.6-2,9.2-2s4.6,2,9.2,2s4.6-2,9.2-2c4.6,0,4.6,2,9.2,2c4.6,0,4.6-2,9.2-2"/>
		</g>
		<g>
			<path class="st0" d="M20.5-15c4.6,0,4.6,2,9.2,2s4.6-2,9.2-2s4.6,2,9.2,2s4.6-2,9.2-2s4.6,2,9.2,2s4.6-2,9.2-2s4.6,2,9.2,2
				s4.6-2,9.2-2s4.6,2,9.2,2s4.6-2,9.2-2c4.6,0,4.6,2,9.2,2c4.6,0,4.6-2,9.2-2"/>
		</g>
		<g>
			<path class="st0" d="M20.5-6.5c4.6,0,4.6,2,9.2,2s4.6-2,9.2-2s4.6,2,9.2,2s4.6-2,9.2-2s4.6,2,9.2,2s4.6-2,9.2-2s4.6,2,9.2,2
				s4.6-2,9.2-2s4.6,2,9.2,2s4.6-2,9.2-2c4.6,0,4.6,2,9.2,2c4.6,0,4.6-2,9.2-2"/>
		</g>
		<g>
			<path class="st0" d="M20.5,2c4.6,0,4.6,2,9.2,2s4.6-2,9.2-2s4.6,2,9.2,2s4.6-2,9.2-2s4.6,2,9.2,2s4.6-2,9.2-2s4.6,2,9.2,2
				s4.6-2,9.2-2s4.6,2,9.2,2s4.6-2,9.2-2c4.6,0,4.6,2,9.2,2c4.6,0,4.6-2,9.2-2"/>
		</g>
		<g>
			<path class="st0" d="M20.5,10.5c4.6,0,4.6,2,9.2,2s4.6-2,9.2-2s4.6,2,9.2,2s4.6-2,9.2-2s4.6,2,9.2,2s4.6-2,9.2-2s4.6,2,9.2,2
				s4.6-2,9.2-2s4.6,2,9.2,2s4.6-2,9.2-2c4.6,0,4.6,2,9.2,2c4.6,0,4.6-2,9.2-2"/>
		</g>
		<g>
			<path class="st0" d="M20.5,19c4.6,0,4.6,2,9.2,2s4.6-2,9.2-2s4.6,2,9.2,2s4.6-2,9.2-2s4.6,2,9.2,2s4.6-2,9.2-2s4.6,2,9.2,2
				s4.6-2,9.2-2s4.6,2,9.2,2s4.6-2,9.2-2c4.6,0,4.6,2,9.2,2c4.6,0,4.6-2,9.2-2"/>
		</g>
		<g>
			<path class="st0" d="M20.5,27.5c4.6,0,4.6,2,9.2,2s4.6-2,9.2-2s4.6,2,9.2,2s4.6-2,9.2-2s4.6,2,9.2,2s4.6-2,9.2-2s4.6,2,9.2,2
				s4.6-2,9.2-2s4.6,2,9.2,2s4.6-2,9.2-2c4.6,0,4.6,2,9.2,2c4.6,0,4.6-2,9.2-2"/>
		</g>
		<g>
			<path class="st0" d="M20.5,36c4.6,0,4.6,2,9.2,2s4.6-2,9.2-2s4.6,2,9.2,2s4.6-2,9.2-2s4.6,2,9.2,2s4.6-2,9.2-2s4.6,2,9.2,2
				s4.6-2,9.2-2s4.6,2,9.2,2s4.6-2,9.2-2c4.6,0,4.6,2,9.2,2c4.6,0,4.6-2,9.2-2"/>
		</g>
		<g>
			<path class="st0" d="M20.5,44.5c4.6,0,4.6,2,9.2,2s4.6-2,9.2-2s4.6,2,9.2,2s4.6-2,9.2-2s4.6,2,9.2,2s4.6-2,9.2-2s4.6,2,9.2,2
				s4.6-2,9.2-2s4.6,2,9.2,2s4.6-2,9.2-2c4.6,0,4.6,2,9.2,2c4.6,0,4.6-2,9.2-2"/>
		</g>
		<g>
			<path class="st0" d="M20.5,53c4.6,0,4.6,2,9.2,2s4.6-2,9.2-2s4.6,2,9.2,2s4.6-2,9.2-2s4.6,2,9.2,2s4.6-2,9.2-2s4.6,2,9.2,2
				s4.6-2,9.2-2s4.6,2,9.2,2s4.6-2,9.2-2c4.6,0,4.6,2,9.2,2c4.6,0,4.6-2,9.2-2"/>
		</g>
		<g>
			<path class="st0" d="M20.5,61.6c4.6,0,4.6,2,9.2,2s4.6-2,9.2-2s4.6,2,9.2,2s4.6-2,9.2-2s4.6,2,9.2,2s4.6-2,9.2-2s4.6,2,9.2,2
				s4.6-2,9.2-2s4.6,2,9.2,2s4.6-2,9.2-2c4.6,0,4.6,2,9.2,2c4.6,0,4.6-2,9.2-2"/>
		</g>
		<g>
			<path class="st0" d="M20.5,70.1c4.6,0,4.6,2,9.2,2s4.6-2,9.2-2s4.6,2,9.2,2s4.6-2,9.2-2s4.6,2,9.2,2s4.6-2,9.2-2s4.6,2,9.2,2
				s4.6-2,9.2-2s4.6,2,9.2,2s4.6-2,9.2-2c4.6,0,4.6,2,9.2,2c4.6,0,4.6-2,9.2-2"/>
		</g>
		<g>
			<path class="st0" d="M20.5,78.6c4.6,0,4.6,2,9.2,2s4.6-2,9.2-2s4.6,2,9.2,2s4.6-2,9.2-2s4.6,2,9.2,2s4.6-2,9.2-2s4.6,2,9.2,2
				s4.6-2,9.2-2s4.6,2,9.2,2s4.6-2,9.2-2c4.6,0,4.6,2,9.2,2c4.6,0,4.6-2,9.2-2"/>
		</g>
	</g>
	<rect x="20.5" y="-48.1" class="st1" width="109.9" height="136.2"/>
	<path class="st1" d="M138.3-41.2c0,3.9,3.2,7.1,7.1,7.2l0,0v10.1l0,0c-3.9,0-7.1,3.2-7.1,7.1s3.2,7.1,7.1,7.1l0,0V0.5l0,0
		c-3.9,0-7.1,3.2-7.1,7.2c0,3.9,3.2,7.1,7.1,7.1l0,0V25l0,0c-3.9,0-7.1,3.2-7.1,7.1s3.2,7.1,7.1,7.1l0,0v10.1l0,0
		c-3.9,0-7.1,3.2-7.1,7.2s3.2,7.1,7.1,7.2l0,0V74l0,0c-3.9,0-7.1,3.2-7.1,7.1c0,3.9,3.2,7.1,7.1,7.1l0,0V103l0,0h-13.8l0,0
		c0-3.9-3.2-7.1-7.1-7.1c-3.9,0-7.1,3.2-7.1,7.1l0,0h-10.2l0,0c0-3.9-3.2-7.1-7.1-7.1S93,99.1,93,103l0,0H82.7l0,0
		c0-3.9-3.2-7.1-7.1-7.1s-7.1,3.2-7.1,7.1l0,0H58.2l0,0c0-3.9-3.2-7.1-7.2-7.1c-3.9,0-7.1,3.2-7.1,7.1l0,0H33.7l0,0
		c0-3.9-3.2-7.1-7.1-7.1s-7.1,3.2-7.1,7.1l0,0H5.6l0,0V88.2l0,0c3.9,0,7.1-3.2,7.1-7.1c0-3.9-3.2-7.1-7.1-7.1l0,0V63.9l0,0
		c3.9,0,7.1-3.2,7.1-7.2s-3.2-7.1-7.1-7.2l0,0V39.4l0,0c3.9,0,7.1-3.2,7.1-7.1s-3.2-7.1-7.1-7.1l0,0V14.9l0,0c3.9,0,7.1-3.2,7.1-7.1
		S9.5,0.7,5.6,0.6l0,0V-9.5l0,0c3.9,0,7.1-3.2,7.1-7.1s-3.2-7.1-7.1-7.1l0,0V-34l0,0c3.9,0,7.1-3.2,7.1-7.2c0-3.9-3.2-7.1-7.1-7.1
		l0,0v-14.8l0,0h13.9l0,0l0,0c-0.2,2.5,0.9,4.9,3.1,6.2c5.5,3.2,11.2-0.8,11.2-6c0-0.1,0-0.1,0-0.2H44c0,0.1,0,0.1,0,0.2
		c0,5.3,5.7,9.2,11.2,6c2.2-1.2,3.3-3.7,3.1-6.2l0,0l0,0h10.2l0,0c0,0,0,0,0,0.1c-0.1,2.5,0.9,4.9,3.1,6.1c5.6,3.1,11.2-0.8,11.2-6
		c0-0.1,0-0.1,0-0.2H93l0,0c0,0,0,0,0,0.1c-0.1,2.5,0.9,4.9,3.1,6.1c5.6,3.1,11.2-0.8,11.2-6c0-0.1,0-0.1,0-0.2h10.2l0,0l0,0
		c-0.2,2.5,0.9,4.9,3.1,6.2c5.5,3.2,11.2-0.8,11.2-6c0-0.1,0-0.1,0-0.2h13.9l0,0v14.8l0,0C141.5-48.3,138.3-45.1,138.3-41.2z"/>
	<g>
		<rect x="54.9" y="15.1" class="st2" width="41.2" height="47.7"/>
		<circle class="st2" cx="75.5" cy="35.7" r="15.2"/>
		<line class="st1" x1="75.5" y1="21.5" x2="75.5" y2="24.8"/>
		<line class="st1" x1="68.4" y1="23.4" x2="70.1" y2="26.3"/>
		<line class="st1" x1="63.2" y1="28.6" x2="66.1" y2="30.3"/>
		<line class="st1" x1="61.3" y1="35.7" x2="64.6" y2="35.7"/>
		<line class="st1" x1="63.2" y1="42.8" x2="66.1" y2="41.2"/>
		<line class="st1" x1="68.4" y1="48" x2="70.1" y2="45.1"/>
		<line class="st1" x1="75.5" y1="49.9" x2="75.5" y2="46.6"/>
		<line class="st1" x1="82.6" y1="48" x2="80.9" y2="45.1"/>
		<line class="st1" x1="87.8" y1="42.8" x2="84.9" y2="41.2"/>
		<line class="st1" x1="89.7" y1="35.7" x2="86.4" y2="35.7"/>
		<line class="st1" x1="87.8" y1="28.6" x2="84.9" y2="30.3"/>
		<line class="st1" x1="82.6" y1="23.4" x2="80.9" y2="26.3"/>
		<path class="st2" d="M91.2,7.1H59.8c4.8-6.8,5-11.8,5-11.8h21.4C86.2-4.7,86.4,0.3,91.2,7.1z"/>
		<path class="st2" d="M86.2-12.6H64.8c10.7-10.1,10.7-23.1,10.7-23.1C75.5-35.6,75.5-22.7,86.2-12.6z"/>
		<rect x="64.8" y="-12.6" class="st2" width="21.4" height="7.8"/>
		<line class="st1" x1="59.8" y1="7.1" x2="59.8" y2="-4.8"/>
		<line class="st1" x1="91.2" y1="7.1" x2="91.2" y2="-4.8"/>
		<line class="st1" x1="64.8" y1="-4.7" x2="64.8" y2="-8.7"/>
		<line class="st1" x1="70.3" y1="-4.7" x2="70.3" y2="-8.7"/>
		<line class="st1" x1="75.5" y1="-4.7" x2="75.5" y2="-8.7"/>
		<line class="st1" x1="80.7" y1="-4.7" x2="80.7" y2="-8.7"/>
		<line class="st1" x1="86.2" y1="-19.3" x2="86.2" y2="-12.6"/>
		<line class="st1" x1="96.1" y1="7" x2="96.1" y2="15.1"/>
		<line class="st1" x1="54.9" y1="7" x2="54.9" y2="15.1"/>
		<line class="st1" x1="64.8" y1="-19.3" x2="64.8" y2="-12.6"/>
		<line class="st1" x1="75.5" y1="-35.6" x2="75.5" y2="-39.7"/>
		<circle class="st1" cx="75.5" cy="35.7" r="10.1"/>
		<line class="st1" x1="75.5" y1="35.7" x2="75.5" y2="29.8"/>
		<line class="st1" x1="75.5" y1="35.7" x2="81.4" y2="35.7"/>
		<rect x="59.8" y="7.1" class="st2" width="31.4" height="8.1"/>
		<line class="st1" x1="65" y1="7.1" x2="65" y2="15.1"/>
		<line class="st1" x1="70.3" y1="7.1" x2="70.3" y2="15.1"/>
		<line class="st1" x1="75.5" y1="7.1" x2="75.5" y2="15.1"/>
		<line class="st1" x1="80.7" y1="7.1" x2="80.7" y2="15.1"/>
		<line class="st1" x1="86" y1="7.1" x2="86" y2="15.1"/>
		<rect x="59.8" y="56.3" class="st2" width="31.4" height="31.8"/>
		<line class="st1" x1="65" y1="56.3" x2="65" y2="88.1"/>
		<line class="st1" x1="70.3" y1="56.3" x2="70.3" y2="88.1"/>
		<line class="st1" x1="75.5" y1="56.3" x2="75.5" y2="88.1"/>
		<line class="st1" x1="80.7" y1="56.3" x2="80.7" y2="88.1"/>
		<line class="st1" x1="86" y1="56.3" x2="86" y2="88.1"/>
		<g>
			<line class="st1" x1="57.2" y1="79.7" x2="93.8" y2="79.7"/>
		</g>
		<line class="st1" x1="59.8" y1="62.8" x2="91.2" y2="62.8"/>
		<line class="st1" x1="91.2" y1="56.3" x2="96.1" y2="56.3"/>
		<line class="st1" x1="54.9" y1="56.3" x2="59.8" y2="56.3"/>
	</g>
</g>
</svg>
