<?xml version="1.0" encoding="utf-8"?>
<!-- Generator: Adobe Illustrator 19.0.1, SVG Export Plug-In . SVG Version: 6.00 Build 0)  -->
<svg version="1.1" id="Layer_1" xmlns="http://www.w3.org/2000/svg" xmlns:xlink="http://www.w3.org/1999/xlink" x="0px" y="0px"
	 viewBox="0 0 175 200" style="enable-background:new 0 0 175 200;" xml:space="preserve">
<style type="text/css">
	.st0{fill:none;stroke:#D8D8D8;stroke-width:2.25;stroke-linecap:round;stroke-linejoin:round;stroke-miterlimit:10;}
	.st1{fill:none;stroke:#012b30;stroke-width:2.25;stroke-linecap:round;stroke-linejoin:round;stroke-miterlimit:10;}
	.st2{fill:#FFFFFF;stroke:#012b30;stroke-width:2.25;stroke-linecap:round;stroke-linejoin:round;stroke-miterlimit:10;}
	.st3{fill:#012b30;}
	.st4{clip-path:url(#SVGID_2_);}
	.st5{fill:none;}
	.st6{clip-path:url(#SVGID_4_);}
</style>
<g>
	<g>
		<g>
			<path class="st0" d="M32.5,39.4c4.6,0,4.6,2,9.2,2c4.6,0,4.6-2,9.2-2c4.6,0,4.6,2,9.2,2c4.6,0,4.6-2,9.2-2c4.6,0,4.6,2,9.2,2
				s4.6-2,9.2-2c4.6,0,4.6,2,9.2,2c4.6,0,4.6-2,9.2-2c4.6,0,4.6,2,9.2,2c4.6,0,4.6-2,9.2-2c4.6,0,4.6,2,9.2,2c4.6,0,4.6-2,9.2-2"/>
		</g>
		<g>
			<path class="st0" d="M32.5,47.9c4.6,0,4.6,2,9.2,2c4.6,0,4.6-2,9.2-2c4.6,0,4.6,2,9.2,2c4.6,0,4.6-2,9.2-2c4.6,0,4.6,2,9.2,2
				s4.6-2,9.2-2c4.6,0,4.6,2,9.2,2c4.6,0,4.6-2,9.2-2c4.6,0,4.6,2,9.2,2c4.6,0,4.6-2,9.2-2c4.6,0,4.6,2,9.2,2c4.6,0,4.6-2,9.2-2"/>
		</g>
		<g>
			<path class="st0" d="M32.5,56.4c4.6,0,4.6,2,9.2,2c4.6,0,4.6-2,9.2-2c4.6,0,4.6,2,9.2,2c4.6,0,4.6-2,9.2-2c4.6,0,4.6,2,9.2,2
				s4.6-2,9.2-2c4.6,0,4.6,2,9.2,2c4.6,0,4.6-2,9.2-2c4.6,0,4.6,2,9.2,2c4.6,0,4.6-2,9.2-2c4.6,0,4.6,2,9.2,2c4.6,0,4.6-2,9.2-2"/>
		</g>
		<g>
			<path class="st0" d="M32.5,65c4.6,0,4.6,2,9.2,2c4.6,0,4.6-2,9.2-2c4.6,0,4.6,2,9.2,2c4.6,0,4.6-2,9.2-2c4.6,0,4.6,2,9.2,2
				s4.6-2,9.2-2c4.6,0,4.6,2,9.2,2c4.6,0,4.6-2,9.2-2c4.6,0,4.6,2,9.2,2c4.6,0,4.6-2,9.2-2c4.6,0,4.6,2,9.2,2c4.6,0,4.6-2,9.2-2"/>
		</g>
		<g>
			<path class="st0" d="M32.5,73.5c4.6,0,4.6,2,9.2,2c4.6,0,4.6-2,9.2-2c4.6,0,4.6,2,9.2,2c4.6,0,4.6-2,9.2-2c4.6,0,4.6,2,9.2,2
				s4.6-2,9.2-2c4.6,0,4.6,2,9.2,2c4.6,0,4.6-2,9.2-2c4.6,0,4.6,2,9.2,2c4.6,0,4.6-2,9.2-2c4.6,0,4.6,2,9.2,2c4.6,0,4.6-2,9.2-2"/>
		</g>
		<g>
			<path class="st0" d="M32.5,82c4.6,0,4.6,2,9.2,2c4.6,0,4.6-2,9.2-2c4.6,0,4.6,2,9.2,2c4.6,0,4.6-2,9.2-2c4.6,0,4.6,2,9.2,2
				s4.6-2,9.2-2c4.6,0,4.6,2,9.2,2c4.6,0,4.6-2,9.2-2c4.6,0,4.6,2,9.2,2c4.6,0,4.6-2,9.2-2c4.6,0,4.6,2,9.2,2c4.6,0,4.6-2,9.2-2"/>
		</g>
		<g>
			<path class="st0" d="M32.5,90.5c4.6,0,4.6,2,9.2,2c4.6,0,4.6-2,9.2-2c4.6,0,4.6,2,9.2,2c4.6,0,4.6-2,9.2-2c4.6,0,4.6,2,9.2,2
				s4.6-2,9.2-2c4.6,0,4.6,2,9.2,2c4.6,0,4.6-2,9.2-2c4.6,0,4.6,2,9.2,2c4.6,0,4.6-2,9.2-2c4.6,0,4.6,2,9.2,2c4.6,0,4.6-2,9.2-2"/>
		</g>
		<g>
			<path class="st0" d="M32.5,99c4.6,0,4.6,2,9.2,2c4.6,0,4.6-2,9.2-2c4.6,0,4.6,2,9.2,2c4.6,0,4.6-2,9.2-2c4.6,0,4.6,2,9.2,2
				s4.6-2,9.2-2c4.6,0,4.6,2,9.2,2c4.6,0,4.6-2,9.2-2c4.6,0,4.6,2,9.2,2c4.6,0,4.6-2,9.2-2c4.6,0,4.6,2,9.2,2c4.6,0,4.6-2,9.2-2"/>
		</g>
		<g>
			<path class="st0" d="M32.5,107.5c4.6,0,4.6,2,9.2,2c4.6,0,4.6-2,9.2-2c4.6,0,4.6,2,9.2,2c4.6,0,4.6-2,9.2-2c4.6,0,4.6,2,9.2,2
				s4.6-2,9.2-2c4.6,0,4.6,2,9.2,2c4.6,0,4.6-2,9.2-2c4.6,0,4.6,2,9.2,2c4.6,0,4.6-2,9.2-2c4.6,0,4.6,2,9.2,2c4.6,0,4.6-2,9.2-2"/>
		</g>
		<g>
			<path class="st0" d="M32.5,116c4.6,0,4.6,2,9.2,2c4.6,0,4.6-2,9.2-2c4.6,0,4.6,2,9.2,2c4.6,0,4.6-2,9.2-2c4.6,0,4.6,2,9.2,2
				s4.6-2,9.2-2c4.6,0,4.6,2,9.2,2c4.6,0,4.6-2,9.2-2c4.6,0,4.6,2,9.2,2c4.6,0,4.6-2,9.2-2c4.6,0,4.6,2,9.2,2c4.6,0,4.6-2,9.2-2"/>
		</g>
		<g>
			<path class="st0" d="M32.5,124.5c4.6,0,4.6,2,9.2,2c4.6,0,4.6-2,9.2-2c4.6,0,4.6,2,9.2,2c4.6,0,4.6-2,9.2-2c4.6,0,4.6,2,9.2,2
				s4.6-2,9.2-2c4.6,0,4.6,2,9.2,2c4.6,0,4.6-2,9.2-2c4.6,0,4.6,2,9.2,2c4.6,0,4.6-2,9.2-2c4.6,0,4.6,2,9.2,2c4.6,0,4.6-2,9.2-2"/>
		</g>
		<g>
			<path class="st0" d="M32.5,133c4.6,0,4.6,2,9.2,2c4.6,0,4.6-2,9.2-2c4.6,0,4.6,2,9.2,2c4.6,0,4.6-2,9.2-2c4.6,0,4.6,2,9.2,2
				s4.6-2,9.2-2c4.6,0,4.6,2,9.2,2c4.6,0,4.6-2,9.2-2c4.6,0,4.6,2,9.2,2c4.6,0,4.6-2,9.2-2c4.6,0,4.6,2,9.2,2c4.6,0,4.6-2,9.2-2"/>
		</g>
		<g>
			<path class="st0" d="M32.5,141.6c4.6,0,4.6,2,9.2,2c4.6,0,4.6-2,9.2-2c4.6,0,4.6,2,9.2,2c4.6,0,4.6-2,9.2-2c4.6,0,4.6,2,9.2,2
				s4.6-2,9.2-2c4.6,0,4.6,2,9.2,2c4.6,0,4.6-2,9.2-2c4.6,0,4.6,2,9.2,2c4.6,0,4.6-2,9.2-2c4.6,0,4.6,2,9.2,2c4.6,0,4.6-2,9.2-2"/>
		</g>
		<g>
			<path class="st0" d="M32.5,150.1c4.6,0,4.6,2,9.2,2c4.6,0,4.6-2,9.2-2c4.6,0,4.6,2,9.2,2c4.6,0,4.6-2,9.2-2c4.6,0,4.6,2,9.2,2
				s4.6-2,9.2-2c4.6,0,4.6,2,9.2,2c4.6,0,4.6-2,9.2-2c4.6,0,4.6,2,9.2,2c4.6,0,4.6-2,9.2-2c4.6,0,4.6,2,9.2,2c4.6,0,4.6-2,9.2-2"/>
		</g>
		<g>
			<path class="st0" d="M32.5,158.6c4.6,0,4.6,2,9.2,2c4.6,0,4.6-2,9.2-2c4.6,0,4.6,2,9.2,2c4.6,0,4.6-2,9.2-2c4.6,0,4.6,2,9.2,2
				s4.6-2,9.2-2c4.6,0,4.6,2,9.2,2c4.6,0,4.6-2,9.2-2c4.6,0,4.6,2,9.2,2c4.6,0,4.6-2,9.2-2c4.6,0,4.6,2,9.2,2c4.6,0,4.6-2,9.2-2"/>
		</g>
	</g>
	<rect x="32.5" y="31.9" class="st1" width="109.9" height="136.2"/>
	<path class="st1" d="M150.3,38.8c0,3.9,3.2,7.1,7.1,7.2c0,0,0,0,0,0v10.1c0,0,0,0,0,0c-3.9,0-7.1,3.2-7.1,7.1
		c0,3.9,3.2,7.1,7.1,7.1c0,0,0,0,0,0v10.2c0,0,0,0,0,0c-3.9,0-7.1,3.2-7.1,7.2c0,3.9,3.2,7.1,7.1,7.1c0,0,0,0,0,0v10.2c0,0,0,0,0,0
		c-3.9,0-7.1,3.2-7.1,7.1c0,3.9,3.2,7.1,7.1,7.1c0,0,0,0,0,0v10.1c0,0,0,0,0,0c-3.9,0-7.1,3.2-7.1,7.2s3.2,7.1,7.1,7.2c0,0,0,0,0,0
		V154c0,0,0,0,0,0c-3.9,0-7.1,3.2-7.1,7.1c0,3.9,3.2,7.1,7.1,7.1c0,0,0,0,0,0v14.8c0,0,0,0,0,0h-13.8c0,0,0,0,0,0
		c0-3.9-3.2-7.1-7.1-7.1c-3.9,0-7.1,3.2-7.1,7.1c0,0,0,0,0,0h-10.2c0,0,0,0,0,0c0-3.9-3.2-7.1-7.1-7.1c-3.9,0-7.1,3.2-7.1,7.1
		c0,0,0,0,0,0H94.7c0,0,0,0,0,0c0-3.9-3.2-7.1-7.1-7.1c-3.9,0-7.1,3.2-7.1,7.1c0,0,0,0,0,0H70.2c0,0,0,0,0,0c0-3.9-3.2-7.1-7.2-7.1
		c-3.9,0-7.1,3.2-7.1,7.1c0,0,0,0,0,0H45.7c0,0,0,0,0,0c0-3.9-3.2-7.1-7.1-7.1c-3.9,0-7.1,3.2-7.1,7.1c0,0,0,0,0,0H17.6c0,0,0,0,0,0
		v-14.8c0,0,0,0,0,0c4,0,7.1-3.2,7.1-7.1c0-3.9-3.2-7.1-7.1-7.1c0,0,0,0,0,0v-10.1c0,0,0,0,0,0c4,0,7.1-3.2,7.1-7.2
		s-3.2-7.1-7.1-7.2c0,0,0,0,0,0v-10.1c0,0,0,0,0,0c4,0,7.1-3.2,7.1-7.1c0-3.9-3.2-7.1-7.1-7.1c0,0,0,0,0,0V94.9c0,0,0,0,0,0
		c4,0,7.1-3.2,7.1-7.1c0-3.9-3.2-7.1-7.1-7.2c0,0,0,0,0,0V70.5c0,0,0,0,0,0c4,0,7.1-3.2,7.1-7.1c0-3.9-3.2-7.1-7.1-7.1c0,0,0,0,0,0
		V46c0,0,0,0,0,0c4,0,7.1-3.2,7.1-7.2c0-3.9-3.2-7.1-7.1-7.1c0,0,0,0,0,0V16.9c0,0,0,0,0,0h13.9c0,0,0,0,0,0c0,0,0,0,0,0
		c-0.2,2.5,0.9,4.9,3.1,6.2c5.5,3.2,11.2-0.8,11.2-6c0-0.1,0-0.1,0-0.2h10.2c0,0.1,0,0.1,0,0.2c0,5.3,5.7,9.2,11.2,6
		c2.2-1.2,3.3-3.7,3.1-6.2c0,0,0,0,0,0c0,0,0,0,0,0h10.2c0,0,0,0,0,0c0,0,0,0,0,0.1c-0.1,2.5,0.9,4.9,3.1,6.1
		c5.6,3.1,11.2-0.8,11.2-6c0-0.1,0-0.1,0-0.2h10.2c0,0,0,0,0,0c0,0,0,0,0,0.1c-0.1,2.5,0.9,4.9,3.1,6.1c5.6,3.1,11.2-0.8,11.2-6
		c0-0.1,0-0.1,0-0.2h10.2c0,0,0,0,0,0c0,0,0,0,0,0c-0.2,2.5,0.9,4.9,3.1,6.2c5.5,3.2,11.2-0.8,11.2-6c0-0.1,0-0.1,0-0.2h13.9
		c0,0,0,0,0,0v14.8c0,0,0,0,0,0C153.5,31.7,150.3,34.9,150.3,38.8z"/>
	<rect x="52.8" y="113.5" class="st2" width="69.5" height="54.6"/>
	<path class="st2" d="M91.3,68.5h-7.7l0.7-6.2c0.2-1.6,1.5-2.8,3.1-2.8h0.1c1.6,0,3,1.2,3.1,2.8L91.3,68.5z"/>
	<path class="st2" d="M109.7,89.6c0-11.3-9.7-21.6-21.8-21.8c-0.1,0-0.1,0-0.2,0c-0.1,0-0.1,0-0.2,0s-0.1,0-0.2,0
		c-0.1,0-0.1,0-0.2,0C75,68,65.3,78.3,65.3,89.6"/>
	<path class="st1" d="M98.6,89.6c0-11.3-4.8-21.5-10.9-21.8c-0.1,0-0.2,0-0.3,0s-0.2,0-0.3,0c-6,0.3-10.9,10.5-10.9,21.8"/>
	<rect x="65.3" y="89.6" class="st2" width="44.5" height="6.2"/>
	<rect x="65.3" y="95.8" class="st2" width="44.5" height="10.6"/>
	<path class="st1" d="M90.8,89.6h-6.7v-4.3c0-1.8,1.5-3.3,3.3-3.3h0.1c1.8,0,3.3,1.5,3.3,3.3V89.6z"/>
	<line class="st1" x1="61.7" y1="131.4" x2="113.3" y2="131.4"/>
	<g>
		<line class="st1" x1="68.7" y1="131.4" x2="68.7" y2="122.1"/>
		<line class="st1" x1="78.1" y1="131.4" x2="78.1" y2="122.1"/>
		<line class="st1" x1="87.5" y1="131.4" x2="87.5" y2="122.1"/>
		<line class="st1" x1="96.9" y1="131.4" x2="96.9" y2="122.1"/>
		<line class="st1" x1="106.3" y1="131.4" x2="106.3" y2="122.1"/>
	</g>
	<rect x="32.5" y="113.5" class="st2" width="29" height="54.6"/>
	<rect x="113.5" y="113.5" class="st2" width="29" height="54.6"/>
	<line class="st1" x1="32.5" y1="159.6" x2="68.5" y2="159.6"/>
	<line class="st1" x1="106.5" y1="159.6" x2="142.5" y2="159.6"/>
	<rect x="48" y="106.4" class="st2" width="78.9" height="7.1"/>
	<path class="st2" d="M57.4,101.6v4.8h-9.3v-4.8c0-2.6,2.1-4.6,4.6-4.6S57.4,99,57.4,101.6z"/>
	<path class="st1" d="M87.3,140.7h0.4c10.4,0,18.8,8.3,18.8,17.7v9.7h-38v-9.7C68.5,149,76.9,140.7,87.3,140.7z"/>
	<line class="st1" x1="69.2" y1="154.1" x2="105.8" y2="154.1"/>
	<line class="st1" x1="74.8" y1="154.1" x2="74.8" y2="145.3"/>
	<line class="st1" x1="81.2" y1="154.1" x2="81.2" y2="141.7"/>
	<line class="st1" x1="87.5" y1="154.1" x2="87.5" y2="140.7"/>
	<line class="st1" x1="93.8" y1="154.1" x2="93.8" y2="141.7"/>
	<line class="st1" x1="100.2" y1="154.1" x2="100.2" y2="145.3"/>
	<path class="st1" d="M65.9,148.9c4-7.6,12.1-13.1,21.4-13.1h0.5c9.3,0,17.4,5.5,21.4,13.1"/>
	<line class="st1" x1="65.9" y1="148.9" x2="48" y2="148.9"/>
	<line class="st1" x1="109.1" y1="148.9" x2="127" y2="148.9"/>
	<path class="st2" d="M126.9,101.6v4.8h-9.3v-4.8c0-2.6,2.1-4.6,4.6-4.6C124.8,97,126.9,99,126.9,101.6z"/>
	<line class="st1" x1="98.6" y1="105.3" x2="98.6" y2="89.7"/>
	<line class="st1" x1="76.4" y1="105.3" x2="76.4" y2="89.7"/>
	<polygon class="st2" points="87.5,100.3 102.5,106.9 117.6,113.5 87.5,113.5 57.4,113.5 72.5,106.9 	"/>
	<circle class="st2" cx="87.5" cy="113.5" r="5.1"/>
	<line class="st1" x1="87.5" y1="59.5" x2="87.5" y2="40.4"/>
	<g>
		<line class="st1" x1="142.5" y1="127.5" x2="134.9" y2="127.5"/>
		<line class="st1" x1="142.5" y1="132.8" x2="134.9" y2="132.8"/>
		<line class="st1" x1="142.5" y1="138.2" x2="134.9" y2="138.2"/>
		<line class="st1" x1="142.5" y1="143.5" x2="134.9" y2="143.5"/>
		<line class="st1" x1="142.5" y1="148.9" x2="134.9" y2="148.9"/>
		<line class="st1" x1="142.5" y1="154.2" x2="134.9" y2="154.2"/>
	</g>
	<g>
		<line class="st1" x1="40.1" y1="127.5" x2="32.5" y2="127.5"/>
		<line class="st1" x1="40.1" y1="132.8" x2="32.5" y2="132.8"/>
		<line class="st1" x1="40.1" y1="138.2" x2="32.5" y2="138.2"/>
		<line class="st1" x1="40.1" y1="143.5" x2="32.5" y2="143.5"/>
		<line class="st1" x1="40.1" y1="148.9" x2="32.5" y2="148.9"/>
		<line class="st1" x1="40.1" y1="154.3" x2="32.5" y2="154.3"/>
	</g>
	<line class="st1" x1="32.5" y1="122.1" x2="142.5" y2="122.1"/>
	<line class="st1" x1="127" y1="113.5" x2="127" y2="168.1"/>
	<line class="st1" x1="48" y1="113.5" x2="48" y2="168.1"/>
</g>
</svg>
