<?xml version="1.0" encoding="UTF-8" standalone="no"?>
<svg width="30px" height="30px" viewBox="0 0 30 30" version="1.1" xmlns="http://www.w3.org/2000/svg" xmlns:xlink="http://www.w3.org/1999/xlink">
    <!-- Generator: Sketch 47.1 (45422) - http://www.bohemiancoding.com/sketch -->
    <title>Combined Shape Copy</title>
    <desc>Created with Sketch.</desc>
    <defs></defs>
    <g id="templates" stroke="none" stroke-width="1" fill="none" fill-rule="evenodd">
        <g id="homepage_video_module_alternative-copy-3" transform="translate(-147.000000, -1373.000000)" fill="#FFFFFF">
            <path d="M162,1403 C153.715729,1403 147,1396.28427 147,1388 C147,1379.71573 153.715729,1373 162,1373 C170.284271,1373 177,1379.71573 177,1388 C177,1396.28427 170.284271,1403 162,1403 Z M157.75,1394 C157.768519,1394 157.805555,1393.99074 157.861111,1393.97222 L169.361111,1388.22222 C169.453704,1388.17593 169.5,1388.10185 169.5,1388 C169.5,1387.89815 169.453704,1387.82407 169.361111,1387.77778 L157.861111,1382.02778 C157.777777,1381.98148 157.694445,1381.98611 157.611111,1382.04167 C157.537037,1382.08796 157.5,1382.15741 157.5,1382.25 L157.5,1393.75 C157.5,1393.84259 157.537037,1393.91204 157.611111,1393.95833 C157.657408,1393.98611 157.703703,1394 157.75,1394 Z" id="Combined-Shape-Copy"></path>
        </g>
    </g>
</svg>