<?xml version="1.0" encoding="utf-8"?>
<!-- Generator: Adobe Illustrator 19.0.1, SVG Export Plug-In . SVG Version: 6.00 Build 0)  -->
<svg version="1.1" id="Layer_1" xmlns="http://www.w3.org/2000/svg" xmlns:xlink="http://www.w3.org/1999/xlink" x="0px" y="0px"
	 viewBox="0 0 108 30" style="enable-background:new 0 0 108 30;" xml:space="preserve">
<style type="text/css">
	.st0{clip-path:url(#SVGID_2_);}
	.st1{clip-path:url(#SVGID_4_);fill:#012B30;}
	.st2{clip-path:url(#SVGID_6_);}
	.st3{clip-path:url(#SVGID_8_);fill:#012B30;}
	.st4{clip-path:url(#SVGID_10_);}
	.st5{clip-path:url(#SVGID_12_);fill:#012B30;}
	.st6{clip-path:url(#SVGID_14_);}
	.st7{clip-path:url(#SVGID_16_);fill:#012B30;}
	.st8{clip-path:url(#SVGID_18_);}
	.st9{clip-path:url(#SVGID_20_);fill:#012B30;}
	.st10{clip-path:url(#SVGID_22_);}
	.st11{clip-path:url(#SVGID_24_);fill:#012B30;}
	.st12{clip-path:url(#SVGID_26_);}
	.st13{clip-path:url(#SVGID_28_);fill:#012B30;}
	.st14{clip-path:url(#SVGID_30_);}
	.st15{clip-path:url(#SVGID_32_);fill:#012B30;}
	.st16{fill:#012B30;}
</style>
<g>
	<defs>
		<path id="SVGID_1_" d="M-286-1453.5c0,4.1,3.4,7.5,7.5,7.5c4.1,0,7.5-3.4,7.5-7.5H-286z"/>
	</defs>
	<clipPath id="SVGID_2_">
		<use xlink:href="#SVGID_1_"  style="overflow:visible;"/>
	</clipPath>
	<g class="st0">
		<defs>
			<rect id="SVGID_3_" x="-417" y="-1471" width="1200" height="2994"/>
		</defs>
		<clipPath id="SVGID_4_">
			<use xlink:href="#SVGID_3_"  style="overflow:visible;"/>
		</clipPath>
		<rect x="-291" y="-1458.5" class="st1" width="25" height="17.5"/>
	</g>
</g>
<g>
	<defs>
		<polygon id="SVGID_5_" points="-267.2,-1453.5 -267.2,-1434.3 -252.2,-1453.5 		"/>
	</defs>
	<clipPath id="SVGID_6_">
		<use xlink:href="#SVGID_5_"  style="overflow:visible;"/>
	</clipPath>
	<g class="st2">
		<defs>
			<rect id="SVGID_7_" x="-417" y="-1471" width="1200" height="2994"/>
		</defs>
		<clipPath id="SVGID_8_">
			<use xlink:href="#SVGID_7_"  style="overflow:visible;"/>
		</clipPath>
		<rect x="-272.2" y="-1458.5" class="st3" width="25" height="29.2"/>
	</g>
</g>
<g>
	<defs>
		<path id="SVGID_9_" d="M-252.2-1426.3c0-4.1-3.4-7.5-7.5-7.5c-4.1,0-7.5,3.4-7.5,7.5H-252.2z"/>
	</defs>
	<clipPath id="SVGID_10_">
		<use xlink:href="#SVGID_9_"  style="overflow:visible;"/>
	</clipPath>
	<g class="st4">
		<defs>
			<rect id="SVGID_11_" x="-417" y="-1471" width="1200" height="2994"/>
		</defs>
		<clipPath id="SVGID_12_">
			<use xlink:href="#SVGID_11_"  style="overflow:visible;"/>
		</clipPath>
		<rect x="-272.2" y="-1438.8" class="st5" width="25" height="17.5"/>
	</g>
</g>
<g>
	<defs>
		<polygon id="SVGID_13_" points="-271,-1426.8 -271,-1446 -286,-1426.8 		"/>
	</defs>
	<clipPath id="SVGID_14_">
		<use xlink:href="#SVGID_13_"  style="overflow:visible;"/>
	</clipPath>
	<g class="st6">
		<defs>
			<rect id="SVGID_15_" x="-417" y="-1471" width="1200" height="2994"/>
		</defs>
		<clipPath id="SVGID_16_">
			<use xlink:href="#SVGID_15_"  style="overflow:visible;"/>
		</clipPath>
		<rect x="-291" y="-1451" class="st7" width="25" height="29.2"/>
	</g>
</g>
<g>
	<defs>
		<path id="SVGID_17_" d="M-286-1453.5c0,4.1,3.4,7.5,7.5,7.5c4.1,0,7.5-3.4,7.5-7.5H-286z"/>
	</defs>
	<clipPath id="SVGID_18_">
		<use xlink:href="#SVGID_17_"  style="overflow:visible;"/>
	</clipPath>
	<g class="st8">
		<defs>
			<rect id="SVGID_19_" x="-417" y="-1471" width="1200" height="2994"/>
		</defs>
		<clipPath id="SVGID_20_">
			<use xlink:href="#SVGID_19_"  style="overflow:visible;"/>
		</clipPath>
		<rect x="-291" y="-1458.5" class="st9" width="25" height="17.5"/>
	</g>
</g>
<g>
	<defs>
		<polygon id="SVGID_21_" points="-267.2,-1453.5 -267.2,-1434.3 -252.2,-1453.5 		"/>
	</defs>
	<clipPath id="SVGID_22_">
		<use xlink:href="#SVGID_21_"  style="overflow:visible;"/>
	</clipPath>
	<g class="st10">
		<defs>
			<rect id="SVGID_23_" x="-417" y="-1471" width="1200" height="2994"/>
		</defs>
		<clipPath id="SVGID_24_">
			<use xlink:href="#SVGID_23_"  style="overflow:visible;"/>
		</clipPath>
		<rect x="-272.2" y="-1458.5" class="st11" width="25" height="29.2"/>
	</g>
</g>
<g>
	<defs>
		<path id="SVGID_25_" d="M-252.2-1426.3c0-4.1-3.4-7.5-7.5-7.5c-4.1,0-7.5,3.4-7.5,7.5H-252.2z"/>
	</defs>
	<clipPath id="SVGID_26_">
		<use xlink:href="#SVGID_25_"  style="overflow:visible;"/>
	</clipPath>
	<g class="st12">
		<defs>
			<rect id="SVGID_27_" x="-417" y="-1471" width="1200" height="2994"/>
		</defs>
		<clipPath id="SVGID_28_">
			<use xlink:href="#SVGID_27_"  style="overflow:visible;"/>
		</clipPath>
		<rect x="-272.2" y="-1438.8" class="st13" width="25" height="17.5"/>
	</g>
</g>
<g>
	<defs>
		<polygon id="SVGID_29_" points="-271,-1426.8 -271,-1446 -286,-1426.8 		"/>
	</defs>
	<clipPath id="SVGID_30_">
		<use xlink:href="#SVGID_29_"  style="overflow:visible;"/>
	</clipPath>
	<g class="st14">
		<defs>
			<rect id="SVGID_31_" x="-417" y="-1471" width="1200" height="2994"/>
		</defs>
		<clipPath id="SVGID_32_">
			<use xlink:href="#SVGID_31_"  style="overflow:visible;"/>
		</clipPath>
		<rect x="-291" y="-1451" class="st15" width="25" height="29.2"/>
	</g>
</g>
<g>
	<path class="st16" d="M45,16.2c0-3.2,2.4-5.2,5-5.2c1.3,0,2.6,0.6,3.3,1.5V6.6h2.1v14.6h-2.1v-1.4c-0.8,1-2,1.6-3.3,1.6
		C47.5,21.4,45,19.4,45,16.2z M53.5,16.2c0-1.8-1.3-3.2-3.2-3.2c-1.8,0-3.2,1.4-3.2,3.2s1.4,3.3,3.2,3.3
		C52.1,19.5,53.5,18,53.5,16.2z"/>
	<path class="st16" d="M57.2,16.3c0-2.9,2.3-5.2,5.2-5.2c3,0,5.1,2.1,5.1,5.1V17h-8.3c0.3,1.5,1.5,2.6,3.2,2.6
		c1.4,0,2.4-0.7,2.9-1.8l1.8,1c-0.9,1.6-2.5,2.7-4.7,2.7C59.3,21.4,57.2,19.2,57.2,16.3z M59.3,15.1h6c-0.3-1.4-1.4-2.2-3-2.2
		C60.9,12.9,59.7,13.8,59.3,15.1z"/>
	<path class="st16" d="M68.5,19.2l1.9-1c0.6,0.9,1.4,1.4,2.6,1.4c1.2,0,1.9-0.6,1.9-1.3c0-0.8-1.2-1-2.5-1.3c-1.7-0.3-3.5-0.9-3.5-3
		c0-1.6,1.5-3,3.9-3c1.9,0,3.2,0.7,4.1,1.9l-1.8,1c-0.5-0.7-1.2-1.1-2.3-1.1c-1.2,0-1.7,0.5-1.7,1.2c0,0.7,0.9,0.9,2.4,1.2
		c1.7,0.4,3.6,0.9,3.6,3c0,1.5-1.3,3.2-4.1,3.2C70.8,21.4,69.3,20.6,68.5,19.2z"/>
	<path class="st16" d="M79.7,6.8c0.8,0,1.4,0.6,1.4,1.4c0,0.8-0.6,1.4-1.4,1.4c-0.9,0-1.4-0.6-1.4-1.4C78.3,7.4,78.9,6.8,79.7,6.8z
		 M78.7,11.2h2.2v10h-2.2V11.2z"/>
	<path class="st16" d="M82.5,16.2c0-3.2,2.4-5.2,5-5.2c1.3,0,2.6,0.6,3.3,1.6v-1.4H93V21c0,2.9-1.8,5.1-5,5.1c-2.5,0-4.2-1.2-5-2.8
		l2-0.9c0.5,1.1,1.5,1.8,3,1.8c1.8,0,2.9-1.3,2.9-3.1v-1.3c-0.8,1-2,1.6-3.4,1.6C85,21.4,82.5,19.4,82.5,16.2z M91,16.2
		c0-1.8-1.3-3.2-3.2-3.2c-1.8,0-3.2,1.4-3.2,3.2s1.4,3.3,3.2,3.3C89.6,19.5,91,18,91,16.2z"/>
	<path class="st16" d="M95.2,11.2h2.1v1.3C98,11.6,99,11,100.4,11c2.5,0,4.1,1.6,4.1,4.4v5.8h-2.2v-5.7c0-1.6-0.8-2.7-2.4-2.7
		c-1.4,0-2.5,1.1-2.5,2.8v5.5h-2.1V11.2z"/>
</g>
<title>Group 4</title>
<desc>Created with Sketch.</desc>
<g id="design_homepage" transform="translate(-131.000000, -17.000000)">
	<g id="Group-4" transform="translate(131.000000, 17.000000)">
		<path id="Fill-1" class="st16" d="M1.3,1.5C1.3,5.6,4.6,9,8.8,9c4.1,0,7.5-3.4,7.5-7.5H1.3z"/>
		<polygon id="Fill-3" class="st16" points="20.1,1.5 20.1,20.7 20.1,20.7 35.1,1.5 35.1,1.5 		"/>
		<path id="Fill-5" class="st16" d="M35.1,28.7c0-4.1-3.4-7.5-7.5-7.5c-4.1,0-7.5,3.4-7.5,7.5H35.1z"/>
		<polygon id="Fill-7" class="st16" points="16.3,28.3 16.3,9 16.3,9 1.3,28.3 1.3,28.3 		"/>
	</g>
</g>
</svg>
